STARTFONT 2.1
COMMENT
COMMENT Converted from OpenType font "Helvetica.otf" by "otf2bdf 3.0".
COMMENT
FONT -FreeType-Helvetica-Medium-R-Normal--8-60-100-100-P-58-ISO10646-1
SIZE 6 100 100
FONTBOUNDINGBOX 12 20 -1 -5
STARTPROPERTIES 19
FOUNDRY "FreeType"
FAMILY_NAME "Helvetica"
WEIGHT_NAME "Medium"
SLANT "R"
SETWIDTH_NAME "Normal"
ADD_STYLE_NAME ""
PIXEL_SIZE 8
POINT_SIZE 60
RESOLUTION_X 100
RESOLUTION_Y 100
SPACING "P"
AVERAGE_WIDTH 58
CHARSET_REGISTRY "ISO10646"
CHARSET_ENCODING "1"
FONT_ASCENT 10
FONT_DESCENT 2
COPYRIGHT "-FreeType-Helvetica-Medium-R-Normal--8-60-100-100-P-58-ISO10646-1"
_OTF_FONTFILE "Helvetica.otf"
_OTF_PSNAME "Helvetica"
ENDPROPERTIES
CHARS 754
STARTCHAR 000D
ENCODING 13
SWIDTH 240 0
DWIDTH 2 0
BBX 0 0 0 0
BITMAP
ENDCHAR
STARTCHAR 0020
ENCODING 32
SWIDTH 360 0
DWIDTH 3 0
BBX 0 0 0 0
BITMAP
ENDCHAR
STARTCHAR 0021
ENCODING 33
SWIDTH 480 0
DWIDTH 4 0
BBX 2 8 1 0
BITMAP
C0
C0
C0
C0
80
80
00
C0
ENDCHAR
STARTCHAR 0022
ENCODING 34
SWIDTH 600 0
DWIDTH 5 0
BBX 3 3 1 5
BITMAP
A0
A0
A0
ENDCHAR
STARTCHAR 0023
ENCODING 35
SWIDTH 720 0
DWIDTH 6 0
BBX 7 7 -1 0
BITMAP
28
28
7E
28
FC
50
50
ENDCHAR
STARTCHAR 0024
ENCODING 36
SWIDTH 720 0
DWIDTH 6 0
BBX 5 10 0 -1
BITMAP
20
70
A8
E0
70
38
28
A8
70
20
ENDCHAR
STARTCHAR 0025
ENCODING 37
SWIDTH 960 0
DWIDTH 8 0
BBX 7 8 0 0
BITMAP
62
B4
68
10
10
2C
56
8C
ENDCHAR
STARTCHAR 0026
ENCODING 38
SWIDTH 960 0
DWIDTH 8 0
BBX 7 8 0 0
BITMAP
70
D8
D8
70
DE
CC
DC
76
ENDCHAR
STARTCHAR 0027
ENCODING 39
SWIDTH 360 0
DWIDTH 3 0
BBX 1 3 1 5
BITMAP
80
80
80
ENDCHAR
STARTCHAR 0028
ENCODING 40
SWIDTH 480 0
DWIDTH 4 0
BBX 3 10 0 -2
BITMAP
20
60
40
C0
C0
C0
C0
40
60
20
ENDCHAR
STARTCHAR 0029
ENCODING 41
SWIDTH 480 0
DWIDTH 4 0
BBX 3 10 0 -2
BITMAP
80
C0
40
60
60
60
60
40
C0
80
ENDCHAR
STARTCHAR 002A
ENCODING 42
SWIDTH 480 0
DWIDTH 4 0
BBX 3 3 0 5
BITMAP
A0
40
A0
ENDCHAR
STARTCHAR 002B
ENCODING 43
SWIDTH 720 0
DWIDTH 6 0
BBX 6 5 0 1
BITMAP
30
30
FC
30
30
ENDCHAR
STARTCHAR 002C
ENCODING 44
SWIDTH 360 0
DWIDTH 3 0
BBX 2 4 0 -2
BITMAP
C0
C0
40
80
ENDCHAR
STARTCHAR 002D
ENCODING 45
SWIDTH 600 0
DWIDTH 5 0
BBX 4 1 0 3
BITMAP
F0
ENDCHAR
STARTCHAR 002E
ENCODING 46
SWIDTH 360 0
DWIDTH 3 0
BBX 2 2 0 0
BITMAP
C0
C0
ENDCHAR
STARTCHAR 002F
ENCODING 47
SWIDTH 480 0
DWIDTH 4 0
BBX 4 8 0 0
BITMAP
10
10
20
20
40
40
80
80
ENDCHAR
STARTCHAR 0030
ENCODING 48
SWIDTH 720 0
DWIDTH 6 0
BBX 5 8 0 0
BITMAP
70
D8
D8
D8
D8
D8
D8
70
ENDCHAR
STARTCHAR 0031
ENCODING 49
SWIDTH 720 0
DWIDTH 6 0
BBX 3 8 1 0
BITMAP
60
E0
60
60
60
60
60
60
ENDCHAR
STARTCHAR 0032
ENCODING 50
SWIDTH 720 0
DWIDTH 6 0
BBX 5 8 0 0
BITMAP
70
D8
18
18
30
60
C0
F8
ENDCHAR
STARTCHAR 0033
ENCODING 51
SWIDTH 720 0
DWIDTH 6 0
BBX 5 8 0 0
BITMAP
70
D8
18
30
18
18
D8
70
ENDCHAR
STARTCHAR 0034
ENCODING 52
SWIDTH 720 0
DWIDTH 6 0
BBX 6 8 0 0
BITMAP
08
18
38
58
98
FC
18
18
ENDCHAR
STARTCHAR 0035
ENCODING 53
SWIDTH 720 0
DWIDTH 6 0
BBX 5 8 0 0
BITMAP
F8
C0
C0
F0
18
98
D8
70
ENDCHAR
STARTCHAR 0036
ENCODING 54
SWIDTH 720 0
DWIDTH 6 0
BBX 5 8 0 0
BITMAP
70
D8
C0
F0
D8
D8
D8
70
ENDCHAR
STARTCHAR 0037
ENCODING 55
SWIDTH 720 0
DWIDTH 6 0
BBX 5 8 0 0
BITMAP
F8
18
18
30
30
60
60
60
ENDCHAR
STARTCHAR 0038
ENCODING 56
SWIDTH 720 0
DWIDTH 6 0
BBX 5 8 0 0
BITMAP
70
D8
D8
70
D8
D8
D8
70
ENDCHAR
STARTCHAR 0039
ENCODING 57
SWIDTH 720 0
DWIDTH 6 0
BBX 5 8 0 0
BITMAP
70
D8
D8
D8
78
18
D8
70
ENDCHAR
STARTCHAR 003A
ENCODING 58
SWIDTH 360 0
DWIDTH 3 0
BBX 2 6 0 0
BITMAP
C0
C0
00
00
C0
C0
ENDCHAR
STARTCHAR 003B
ENCODING 59
SWIDTH 360 0
DWIDTH 3 0
BBX 2 8 0 -2
BITMAP
C0
C0
00
00
C0
C0
40
80
ENDCHAR
STARTCHAR 003C
ENCODING 60
SWIDTH 600 0
DWIDTH 5 0
BBX 4 5 0 1
BITMAP
30
60
C0
60
30
ENDCHAR
STARTCHAR 003D
ENCODING 61
SWIDTH 720 0
DWIDTH 6 0
BBX 5 3 0 2
BITMAP
F8
00
F8
ENDCHAR
STARTCHAR 003E
ENCODING 62
SWIDTH 600 0
DWIDTH 5 0
BBX 4 5 0 1
BITMAP
C0
60
30
60
C0
ENDCHAR
STARTCHAR 003F
ENCODING 63
SWIDTH 720 0
DWIDTH 6 0
BBX 5 8 0 0
BITMAP
70
D8
18
30
60
60
00
60
ENDCHAR
STARTCHAR 0040
ENCODING 64
SWIDTH 1320 0
DWIDTH 11 0
BBX 10 9 0 -1
BITMAP
1F00
6080
4D40
9240
A240
A480
9B00
4000
3E00
ENDCHAR
STARTCHAR 0041
ENCODING 65
SWIDTH 960 0
DWIDTH 8 0
BBX 7 8 0 0
BITMAP
38
38
6C
6C
6C
FE
C6
C6
ENDCHAR
STARTCHAR 0042
ENCODING 66
SWIDTH 840 0
DWIDTH 7 0
BBX 6 8 0 0
BITMAP
F8
CC
CC
F8
CC
CC
CC
F8
ENDCHAR
STARTCHAR 0043
ENCODING 67
SWIDTH 960 0
DWIDTH 8 0
BBX 7 8 0 0
BITMAP
3C
66
C2
C0
C0
C2
66
3C
ENDCHAR
STARTCHAR 0044
ENCODING 68
SWIDTH 840 0
DWIDTH 7 0
BBX 6 8 0 0
BITMAP
F0
D8
CC
CC
CC
CC
D8
F0
ENDCHAR
STARTCHAR 0045
ENCODING 69
SWIDTH 720 0
DWIDTH 6 0
BBX 5 8 0 0
BITMAP
F8
C0
C0
F8
C0
C0
C0
F8
ENDCHAR
STARTCHAR 0046
ENCODING 70
SWIDTH 720 0
DWIDTH 6 0
BBX 5 8 0 0
BITMAP
F8
C0
C0
F0
C0
C0
C0
C0
ENDCHAR
STARTCHAR 0047
ENCODING 71
SWIDTH 960 0
DWIDTH 8 0
BBX 7 8 0 0
BITMAP
3C
66
C2
C0
CE
C6
66
3A
ENDCHAR
STARTCHAR 0048
ENCODING 72
SWIDTH 840 0
DWIDTH 7 0
BBX 6 8 0 0
BITMAP
CC
CC
CC
FC
CC
CC
CC
CC
ENDCHAR
STARTCHAR 0049
ENCODING 73
SWIDTH 360 0
DWIDTH 3 0
BBX 2 8 0 0
BITMAP
C0
C0
C0
C0
C0
C0
C0
C0
ENDCHAR
STARTCHAR 004A
ENCODING 74
SWIDTH 720 0
DWIDTH 6 0
BBX 5 8 0 0
BITMAP
18
18
18
18
18
18
D8
70
ENDCHAR
STARTCHAR 004B
ENCODING 75
SWIDTH 840 0
DWIDTH 7 0
BBX 7 8 0 0
BITMAP
CC
D8
F0
E0
F0
D8
CC
C6
ENDCHAR
STARTCHAR 004C
ENCODING 76
SWIDTH 720 0
DWIDTH 6 0
BBX 5 8 0 0
BITMAP
C0
C0
C0
C0
C0
C0
C0
F8
ENDCHAR
STARTCHAR 004D
ENCODING 77
SWIDTH 1200 0
DWIDTH 10 0
BBX 9 8 0 0
BITMAP
C180
E380
E380
F780
D580
DD80
C980
C980
ENDCHAR
STARTCHAR 004E
ENCODING 78
SWIDTH 960 0
DWIDTH 8 0
BBX 7 8 0 0
BITMAP
C6
E6
E6
D6
D6
CE
CE
C6
ENDCHAR
STARTCHAR 004F
ENCODING 79
SWIDTH 960 0
DWIDTH 8 0
BBX 7 8 0 0
BITMAP
38
6C
C6
C6
C6
C6
6C
38
ENDCHAR
STARTCHAR 0050
ENCODING 80
SWIDTH 840 0
DWIDTH 7 0
BBX 6 8 0 0
BITMAP
F8
CC
CC
CC
F8
C0
C0
C0
ENDCHAR
STARTCHAR 0051
ENCODING 81
SWIDTH 960 0
DWIDTH 8 0
BBX 7 9 0 -1
BITMAP
38
6C
C6
C6
C6
D6
6C
3C
02
ENDCHAR
STARTCHAR 0052
ENCODING 82
SWIDTH 840 0
DWIDTH 7 0
BBX 6 8 0 0
BITMAP
F8
CC
CC
CC
F8
CC
CC
CC
ENDCHAR
STARTCHAR 0053
ENCODING 83
SWIDTH 840 0
DWIDTH 7 0
BBX 6 8 0 0
BITMAP
78
CC
E0
78
1C
8C
CC
78
ENDCHAR
STARTCHAR 0054
ENCODING 84
SWIDTH 840 0
DWIDTH 7 0
BBX 6 8 0 0
BITMAP
FC
30
30
30
30
30
30
30
ENDCHAR
STARTCHAR 0055
ENCODING 85
SWIDTH 840 0
DWIDTH 7 0
BBX 6 8 0 0
BITMAP
CC
CC
CC
CC
CC
CC
CC
78
ENDCHAR
STARTCHAR 0056
ENCODING 86
SWIDTH 960 0
DWIDTH 8 0
BBX 7 8 0 0
BITMAP
C6
C6
6C
6C
6C
38
38
10
ENDCHAR
STARTCHAR 0057
ENCODING 87
SWIDTH 1320 0
DWIDTH 11 0
BBX 10 8 0 0
BITMAP
CCC0
CCC0
CCC0
6D80
6D80
7F80
3300
3300
ENDCHAR
STARTCHAR 0058
ENCODING 88
SWIDTH 960 0
DWIDTH 8 0
BBX 7 8 0 0
BITMAP
C6
C6
6C
38
38
6C
C6
C6
ENDCHAR
STARTCHAR 0059
ENCODING 89
SWIDTH 1080 0
DWIDTH 9 0
BBX 8 8 0 0
BITMAP
C3
C3
66
66
3C
18
18
18
ENDCHAR
STARTCHAR 005A
ENCODING 90
SWIDTH 840 0
DWIDTH 7 0
BBX 6 8 0 0
BITMAP
FC
0C
18
30
70
60
C0
FC
ENDCHAR
STARTCHAR 005B
ENCODING 91
SWIDTH 480 0
DWIDTH 4 0
BBX 3 10 0 -2
BITMAP
E0
C0
C0
C0
C0
C0
C0
C0
C0
E0
ENDCHAR
STARTCHAR 005C
ENCODING 92
SWIDTH 480 0
DWIDTH 4 0
BBX 4 8 0 0
BITMAP
80
80
40
40
20
20
10
10
ENDCHAR
STARTCHAR 005D
ENCODING 93
SWIDTH 480 0
DWIDTH 4 0
BBX 3 10 0 -2
BITMAP
E0
60
60
60
60
60
60
60
60
E0
ENDCHAR
STARTCHAR 005E
ENCODING 94
SWIDTH 600 0
DWIDTH 5 0
BBX 4 4 0 4
BITMAP
60
F0
90
90
ENDCHAR
STARTCHAR 005F
ENCODING 95
SWIDTH 720 0
DWIDTH 6 0
BBX 6 1 0 -2
BITMAP
FC
ENDCHAR
STARTCHAR 0060
ENCODING 96
SWIDTH 360 0
DWIDTH 3 0
BBX 2 2 0 7
BITMAP
80
40
ENDCHAR
STARTCHAR 0061
ENCODING 97
SWIDTH 720 0
DWIDTH 6 0
BBX 6 6 0 0
BITMAP
70
98
78
D8
D8
6C
ENDCHAR
STARTCHAR 0062
ENCODING 98
SWIDTH 720 0
DWIDTH 6 0
BBX 5 8 0 0
BITMAP
C0
C0
F0
D8
D8
D8
D8
F0
ENDCHAR
STARTCHAR 0063
ENCODING 99
SWIDTH 600 0
DWIDTH 5 0
BBX 4 6 0 0
BITMAP
70
D0
C0
C0
D0
70
ENDCHAR
STARTCHAR 0064
ENCODING 100
SWIDTH 720 0
DWIDTH 6 0
BBX 5 8 0 0
BITMAP
18
18
78
D8
D8
D8
D8
78
ENDCHAR
STARTCHAR 0065
ENCODING 101
SWIDTH 720 0
DWIDTH 6 0
BBX 5 6 0 0
BITMAP
70
D8
F8
C0
D8
70
ENDCHAR
STARTCHAR 0066
ENCODING 102
SWIDTH 480 0
DWIDTH 4 0
BBX 5 8 -1 0
BITMAP
38
60
F0
60
60
60
60
60
ENDCHAR
STARTCHAR 0067
ENCODING 103
SWIDTH 720 0
DWIDTH 6 0
BBX 5 8 0 -2
BITMAP
68
D8
D8
D8
D8
78
18
70
ENDCHAR
STARTCHAR 0068
ENCODING 104
SWIDTH 720 0
DWIDTH 6 0
BBX 5 8 0 0
BITMAP
C0
C0
F0
D8
D8
D8
D8
D8
ENDCHAR
STARTCHAR 0069
ENCODING 105
SWIDTH 360 0
DWIDTH 3 0
BBX 2 8 0 0
BITMAP
C0
00
C0
C0
C0
C0
C0
C0
ENDCHAR
STARTCHAR 006A
ENCODING 106
SWIDTH 360 0
DWIDTH 3 0
BBX 3 10 -1 -2
BITMAP
60
00
60
60
60
60
60
60
60
C0
ENDCHAR
STARTCHAR 006B
ENCODING 107
SWIDTH 720 0
DWIDTH 6 0
BBX 6 8 0 0
BITMAP
C0
C0
D8
F0
E0
F0
D8
CC
ENDCHAR
STARTCHAR 006C
ENCODING 108
SWIDTH 360 0
DWIDTH 3 0
BBX 2 8 0 0
BITMAP
C0
C0
C0
C0
C0
C0
C0
C0
ENDCHAR
STARTCHAR 006D
ENCODING 109
SWIDTH 1080 0
DWIDTH 9 0
BBX 8 6 0 0
BITMAP
B6
DB
DB
DB
DB
DB
ENDCHAR
STARTCHAR 006E
ENCODING 110
SWIDTH 720 0
DWIDTH 6 0
BBX 5 6 0 0
BITMAP
B0
D8
D8
D8
D8
D8
ENDCHAR
STARTCHAR 006F
ENCODING 111
SWIDTH 720 0
DWIDTH 6 0
BBX 5 6 0 0
BITMAP
70
D8
D8
D8
D8
70
ENDCHAR
STARTCHAR 0070
ENCODING 112
SWIDTH 720 0
DWIDTH 6 0
BBX 5 8 0 -2
BITMAP
B0
D8
D8
D8
D8
F0
C0
C0
ENDCHAR
STARTCHAR 0071
ENCODING 113
SWIDTH 720 0
DWIDTH 6 0
BBX 5 8 0 -2
BITMAP
68
D8
D8
D8
D8
78
18
18
ENDCHAR
STARTCHAR 0072
ENCODING 114
SWIDTH 480 0
DWIDTH 4 0
BBX 4 6 0 0
BITMAP
B0
E0
C0
C0
C0
C0
ENDCHAR
STARTCHAR 0073
ENCODING 115
SWIDTH 720 0
DWIDTH 6 0
BBX 5 6 0 0
BITMAP
70
D8
70
18
D8
70
ENDCHAR
STARTCHAR 0074
ENCODING 116
SWIDTH 480 0
DWIDTH 4 0
BBX 4 8 -1 0
BITMAP
60
60
F0
60
60
60
60
30
ENDCHAR
STARTCHAR 0075
ENCODING 117
SWIDTH 720 0
DWIDTH 6 0
BBX 5 6 0 0
BITMAP
D8
D8
D8
D8
D8
68
ENDCHAR
STARTCHAR 0076
ENCODING 118
SWIDTH 720 0
DWIDTH 6 0
BBX 5 6 0 0
BITMAP
D8
D8
D8
50
70
20
ENDCHAR
STARTCHAR 0077
ENCODING 119
SWIDTH 960 0
DWIDTH 8 0
BBX 7 6 0 0
BITMAP
D6
D6
D6
6C
6C
6C
ENDCHAR
STARTCHAR 0078
ENCODING 120
SWIDTH 840 0
DWIDTH 7 0
BBX 6 6 0 0
BITMAP
CC
78
30
78
CC
CC
ENDCHAR
STARTCHAR 0079
ENCODING 121
SWIDTH 720 0
DWIDTH 6 0
BBX 5 8 0 -2
BITMAP
D8
D8
D8
D8
78
30
30
60
ENDCHAR
STARTCHAR 007A
ENCODING 122
SWIDTH 720 0
DWIDTH 6 0
BBX 5 6 0 0
BITMAP
F8
18
30
60
C0
F8
ENDCHAR
STARTCHAR 007B
ENCODING 123
SWIDTH 600 0
DWIDTH 5 0
BBX 4 10 0 -2
BITMAP
30
60
60
60
C0
60
60
60
60
30
ENDCHAR
STARTCHAR 007C
ENCODING 124
SWIDTH 360 0
DWIDTH 3 0
BBX 1 10 1 -2
BITMAP
80
80
80
80
80
80
80
80
80
80
ENDCHAR
STARTCHAR 007D
ENCODING 125
SWIDTH 600 0
DWIDTH 5 0
BBX 4 10 0 -2
BITMAP
C0
60
60
60
30
60
60
60
60
C0
ENDCHAR
STARTCHAR 007E
ENCODING 126
SWIDTH 720 0
DWIDTH 6 0
BBX 5 2 0 3
BITMAP
68
B0
ENDCHAR
STARTCHAR 00A0
ENCODING 160
SWIDTH 360 0
DWIDTH 3 0
BBX 0 0 0 0
BITMAP
ENDCHAR
STARTCHAR 00A1
ENCODING 161
SWIDTH 480 0
DWIDTH 4 0
BBX 2 8 1 -2
BITMAP
C0
00
40
40
C0
C0
C0
C0
ENDCHAR
STARTCHAR 00A2
ENCODING 162
SWIDTH 720 0
DWIDTH 6 0
BBX 5 8 0 -1
BITMAP
10
70
D8
A0
A0
D8
70
40
ENDCHAR
STARTCHAR 00A3
ENCODING 163
SWIDTH 720 0
DWIDTH 6 0
BBX 5 8 0 0
BITMAP
38
68
60
F0
60
60
68
D8
ENDCHAR
STARTCHAR 00A4
ENCODING 164
SWIDTH 720 0
DWIDTH 6 0
BBX 6 6 0 1
BITMAP
84
78
48
48
78
84
ENDCHAR
STARTCHAR 00A5
ENCODING 165
SWIDTH 840 0
DWIDTH 7 0
BBX 6 8 0 0
BITMAP
84
84
CC
48
FC
30
FC
30
ENDCHAR
STARTCHAR 00A6
ENCODING 166
SWIDTH 360 0
DWIDTH 3 0
BBX 1 10 1 -2
BITMAP
80
80
80
80
00
00
80
80
80
80
ENDCHAR
STARTCHAR 00A7
ENCODING 167
SWIDTH 720 0
DWIDTH 6 0
BBX 5 10 0 -2
BITMAP
70
C8
E0
70
98
C8
70
38
98
70
ENDCHAR
STARTCHAR 00A8
ENCODING 168
SWIDTH 360 0
DWIDTH 3 0
BBX 3 1 0 7
BITMAP
A0
ENDCHAR
STARTCHAR 00A9
ENCODING 169
SWIDTH 1200 0
DWIDTH 10 0
BBX 8 8 1 0
BITMAP
3C
42
99
A5
A1
9D
42
3C
ENDCHAR
STARTCHAR 00AA
ENCODING 170
SWIDTH 600 0
DWIDTH 5 0
BBX 3 5 1 3
BITMAP
E0
20
A0
00
E0
ENDCHAR
STARTCHAR 00AB
ENCODING 171
SWIDTH 840 0
DWIDTH 7 0
BBX 6 3 0 1
BITMAP
6C
D8
6C
ENDCHAR
STARTCHAR 00AC
ENCODING 172
SWIDTH 840 0
DWIDTH 7 0
BBX 5 3 1 2
BITMAP
F8
08
08
ENDCHAR
STARTCHAR 00AD
ENCODING 173
SWIDTH 600 0
DWIDTH 5 0
BBX 4 1 0 3
BITMAP
F0
ENDCHAR
STARTCHAR 00AE
ENCODING 174
SWIDTH 1200 0
DWIDTH 10 0
BBX 8 8 1 0
BITMAP
3C
42
BD
A5
B9
A5
42
3C
ENDCHAR
STARTCHAR 00AF
ENCODING 175
SWIDTH 360 0
DWIDTH 3 0
BBX 3 1 0 7
BITMAP
E0
ENDCHAR
STARTCHAR 00B0
ENCODING 176
SWIDTH 480 0
DWIDTH 4 0
BBX 3 3 0 5
BITMAP
60
A0
C0
ENDCHAR
STARTCHAR 00B1
ENCODING 177
SWIDTH 720 0
DWIDTH 6 0
BBX 6 7 0 0
BITMAP
30
30
FC
30
30
00
FC
ENDCHAR
STARTCHAR 00B2
ENCODING 178
SWIDTH 360 0
DWIDTH 3 0
BBX 3 4 0 4
BITMAP
60
A0
40
E0
ENDCHAR
STARTCHAR 00B3
ENCODING 179
SWIDTH 360 0
DWIDTH 3 0
BBX 3 4 0 4
BITMAP
E0
40
20
C0
ENDCHAR
STARTCHAR 00B4
ENCODING 180
SWIDTH 360 0
DWIDTH 3 0
BBX 2 2 0 7
BITMAP
40
80
ENDCHAR
STARTCHAR 00B5
ENCODING 181
SWIDTH 720 0
DWIDTH 6 0
BBX 5 8 0 -2
BITMAP
D8
D8
D8
D8
D8
E8
C0
C0
ENDCHAR
STARTCHAR 00B6
ENCODING 182
SWIDTH 720 0
DWIDTH 6 0
BBX 6 10 0 -2
BITMAP
7C
E8
E8
E8
68
28
28
28
28
28
ENDCHAR
STARTCHAR 00B7
ENCODING 183
SWIDTH 360 0
DWIDTH 3 0
BBX 2 1 0 3
BITMAP
C0
ENDCHAR
STARTCHAR 00B8
ENCODING 184
SWIDTH 360 0
DWIDTH 3 0
BBX 2 2 0 -2
BITMAP
40
C0
ENDCHAR
STARTCHAR 00B9
ENCODING 185
SWIDTH 360 0
DWIDTH 3 0
BBX 2 4 0 4
BITMAP
40
C0
40
40
ENDCHAR
STARTCHAR 00BA
ENCODING 186
SWIDTH 600 0
DWIDTH 5 0
BBX 3 5 1 3
BITMAP
E0
A0
E0
00
E0
ENDCHAR
STARTCHAR 00BB
ENCODING 187
SWIDTH 840 0
DWIDTH 7 0
BBX 6 3 0 1
BITMAP
D8
6C
D8
ENDCHAR
STARTCHAR 00BC
ENCODING 188
SWIDTH 1080 0
DWIDTH 9 0
BBX 8 8 0 0
BITMAP
44
C4
48
48
12
26
2F
42
ENDCHAR
STARTCHAR 00BD
ENCODING 189
SWIDTH 1080 0
DWIDTH 9 0
BBX 7 8 0 0
BITMAP
44
C4
48
48
16
2A
24
4E
ENDCHAR
STARTCHAR 00BE
ENCODING 190
SWIDTH 1080 0
DWIDTH 9 0
BBX 8 8 0 0
BITMAP
E4
44
28
C8
12
26
2F
42
ENDCHAR
STARTCHAR 00BF
ENCODING 191
SWIDTH 720 0
DWIDTH 6 0
BBX 5 8 0 -2
BITMAP
30
00
30
30
60
C0
D8
70
ENDCHAR
STARTCHAR 00C0
ENCODING 192
SWIDTH 960 0
DWIDTH 8 0
BBX 7 11 0 0
BITMAP
20
10
00
38
38
6C
6C
6C
FE
C6
C6
ENDCHAR
STARTCHAR 00C1
ENCODING 193
SWIDTH 960 0
DWIDTH 8 0
BBX 7 11 0 0
BITMAP
08
10
00
38
38
6C
6C
6C
FE
C6
C6
ENDCHAR
STARTCHAR 00C2
ENCODING 194
SWIDTH 960 0
DWIDTH 8 0
BBX 7 11 0 0
BITMAP
10
28
00
38
38
6C
6C
6C
FE
C6
C6
ENDCHAR
STARTCHAR 00C3
ENCODING 195
SWIDTH 960 0
DWIDTH 8 0
BBX 7 11 0 0
BITMAP
14
28
00
38
38
6C
6C
6C
FE
C6
C6
ENDCHAR
STARTCHAR 00C4
ENCODING 196
SWIDTH 960 0
DWIDTH 8 0
BBX 7 10 0 0
BITMAP
28
00
38
38
6C
6C
6C
FE
C6
C6
ENDCHAR
STARTCHAR 00C5
ENCODING 197
SWIDTH 960 0
DWIDTH 8 0
BBX 7 11 0 0
BITMAP
10
28
10
38
38
6C
6C
6C
FE
C6
C6
ENDCHAR
STARTCHAR 00C6
ENCODING 198
SWIDTH 1200 0
DWIDTH 10 0
BBX 9 8 0 0
BITMAP
3F80
3C00
6C00
6F80
6C00
FC00
CC00
CF80
ENDCHAR
STARTCHAR 00C7
ENCODING 199
SWIDTH 960 0
DWIDTH 8 0
BBX 7 10 0 -2
BITMAP
3C
66
C2
C0
C0
C2
66
3C
10
30
ENDCHAR
STARTCHAR 00C8
ENCODING 200
SWIDTH 720 0
DWIDTH 6 0
BBX 5 11 0 0
BITMAP
40
20
00
F8
C0
C0
F8
C0
C0
C0
F8
ENDCHAR
STARTCHAR 00C9
ENCODING 201
SWIDTH 720 0
DWIDTH 6 0
BBX 5 11 0 0
BITMAP
10
20
00
F8
C0
C0
F8
C0
C0
C0
F8
ENDCHAR
STARTCHAR 00CA
ENCODING 202
SWIDTH 720 0
DWIDTH 6 0
BBX 5 11 0 0
BITMAP
20
50
00
F8
C0
C0
F8
C0
C0
C0
F8
ENDCHAR
STARTCHAR 00CB
ENCODING 203
SWIDTH 720 0
DWIDTH 6 0
BBX 5 10 0 0
BITMAP
50
00
F8
C0
C0
F8
C0
C0
C0
F8
ENDCHAR
STARTCHAR 00CC
ENCODING 204
SWIDTH 360 0
DWIDTH 3 0
BBX 2 11 0 0
BITMAP
80
40
00
C0
C0
C0
C0
C0
C0
C0
C0
ENDCHAR
STARTCHAR 00CD
ENCODING 205
SWIDTH 360 0
DWIDTH 3 0
BBX 2 11 0 0
BITMAP
40
80
00
C0
C0
C0
C0
C0
C0
C0
C0
ENDCHAR
STARTCHAR 00CE
ENCODING 206
SWIDTH 360 0
DWIDTH 3 0
BBX 3 11 -1 0
BITMAP
40
A0
00
60
60
60
60
60
60
60
60
ENDCHAR
STARTCHAR 00CF
ENCODING 207
SWIDTH 360 0
DWIDTH 3 0
BBX 4 10 -1 0
BITMAP
90
00
60
60
60
60
60
60
60
60
ENDCHAR
STARTCHAR 00D0
ENCODING 208
SWIDTH 840 0
DWIDTH 7 0
BBX 7 8 -1 0
BITMAP
78
6C
66
F6
66
66
6C
78
ENDCHAR
STARTCHAR 00D1
ENCODING 209
SWIDTH 960 0
DWIDTH 8 0
BBX 7 11 0 0
BITMAP
14
28
00
C6
E6
E6
D6
D6
CE
CE
C6
ENDCHAR
STARTCHAR 00D2
ENCODING 210
SWIDTH 960 0
DWIDTH 8 0
BBX 7 11 0 0
BITMAP
10
08
00
38
6C
C6
C6
C6
C6
6C
38
ENDCHAR
STARTCHAR 00D3
ENCODING 211
SWIDTH 960 0
DWIDTH 8 0
BBX 7 11 0 0
BITMAP
08
10
00
38
6C
C6
C6
C6
C6
6C
38
ENDCHAR
STARTCHAR 00D4
ENCODING 212
SWIDTH 960 0
DWIDTH 8 0
BBX 7 11 0 0
BITMAP
10
28
00
38
6C
C6
C6
C6
C6
6C
38
ENDCHAR
STARTCHAR 00D5
ENCODING 213
SWIDTH 960 0
DWIDTH 8 0
BBX 7 11 0 0
BITMAP
14
28
00
38
6C
C6
C6
C6
C6
6C
38
ENDCHAR
STARTCHAR 00D6
ENCODING 214
SWIDTH 960 0
DWIDTH 8 0
BBX 7 10 0 0
BITMAP
28
00
38
6C
C6
C6
C6
C6
6C
38
ENDCHAR
STARTCHAR 00D7
ENCODING 215
SWIDTH 720 0
DWIDTH 6 0
BBX 6 5 0 1
BITMAP
CC
78
30
78
CC
ENDCHAR
STARTCHAR 00D8
ENCODING 216
SWIDTH 960 0
DWIDTH 8 0
BBX 7 8 0 0
BITMAP
3A
6C
CE
D6
D6
E6
6C
B8
ENDCHAR
STARTCHAR 00D9
ENCODING 217
SWIDTH 840 0
DWIDTH 7 0
BBX 6 11 0 0
BITMAP
20
10
00
CC
CC
CC
CC
CC
CC
CC
78
ENDCHAR
STARTCHAR 00DA
ENCODING 218
SWIDTH 840 0
DWIDTH 7 0
BBX 6 11 0 0
BITMAP
08
10
00
CC
CC
CC
CC
CC
CC
CC
78
ENDCHAR
STARTCHAR 00DB
ENCODING 219
SWIDTH 840 0
DWIDTH 7 0
BBX 6 11 0 0
BITMAP
20
50
00
CC
CC
CC
CC
CC
CC
CC
78
ENDCHAR
STARTCHAR 00DC
ENCODING 220
SWIDTH 840 0
DWIDTH 7 0
BBX 6 10 0 0
BITMAP
48
00
CC
CC
CC
CC
CC
CC
CC
78
ENDCHAR
STARTCHAR 00DD
ENCODING 221
SWIDTH 1080 0
DWIDTH 9 0
BBX 8 11 0 0
BITMAP
04
08
00
C3
C3
66
66
3C
18
18
18
ENDCHAR
STARTCHAR 00DE
ENCODING 222
SWIDTH 840 0
DWIDTH 7 0
BBX 6 8 0 0
BITMAP
C0
F8
CC
CC
CC
F8
C0
C0
ENDCHAR
STARTCHAR 00DF
ENCODING 223
SWIDTH 720 0
DWIDTH 6 0
BBX 5 8 0 0
BITMAP
70
C8
C8
D0
C8
C8
C8
D0
ENDCHAR
STARTCHAR 00E0
ENCODING 224
SWIDTH 720 0
DWIDTH 6 0
BBX 6 9 0 0
BITMAP
20
10
00
70
98
78
D8
D8
6C
ENDCHAR
STARTCHAR 00E1
ENCODING 225
SWIDTH 720 0
DWIDTH 6 0
BBX 6 9 0 0
BITMAP
10
20
00
70
98
78
D8
D8
6C
ENDCHAR
STARTCHAR 00E2
ENCODING 226
SWIDTH 720 0
DWIDTH 6 0
BBX 6 9 0 0
BITMAP
20
50
00
70
98
78
D8
D8
6C
ENDCHAR
STARTCHAR 00E3
ENCODING 227
SWIDTH 720 0
DWIDTH 6 0
BBX 6 9 0 0
BITMAP
28
50
00
70
98
78
D8
D8
6C
ENDCHAR
STARTCHAR 00E4
ENCODING 228
SWIDTH 720 0
DWIDTH 6 0
BBX 6 8 0 0
BITMAP
50
00
70
98
78
D8
D8
6C
ENDCHAR
STARTCHAR 00E5
ENCODING 229
SWIDTH 720 0
DWIDTH 6 0
BBX 6 9 0 0
BITMAP
20
50
20
70
98
78
D8
D8
6C
ENDCHAR
STARTCHAR 00E6
ENCODING 230
SWIDTH 1080 0
DWIDTH 9 0
BBX 8 6 0 0
BITMAP
7E
9B
7F
D8
DB
6E
ENDCHAR
STARTCHAR 00E7
ENCODING 231
SWIDTH 600 0
DWIDTH 5 0
BBX 4 8 0 -2
BITMAP
70
D0
C0
C0
D0
70
20
60
ENDCHAR
STARTCHAR 00E8
ENCODING 232
SWIDTH 720 0
DWIDTH 6 0
BBX 5 9 0 0
BITMAP
40
20
00
70
D8
F8
C0
D8
70
ENDCHAR
STARTCHAR 00E9
ENCODING 233
SWIDTH 720 0
DWIDTH 6 0
BBX 5 9 0 0
BITMAP
10
20
00
70
D8
F8
C0
D8
70
ENDCHAR
STARTCHAR 00EA
ENCODING 234
SWIDTH 720 0
DWIDTH 6 0
BBX 5 9 0 0
BITMAP
20
50
00
70
D8
F8
C0
D8
70
ENDCHAR
STARTCHAR 00EB
ENCODING 235
SWIDTH 720 0
DWIDTH 6 0
BBX 5 8 0 0
BITMAP
50
00
70
D8
F8
C0
D8
70
ENDCHAR
STARTCHAR 00EC
ENCODING 236
SWIDTH 360 0
DWIDTH 3 0
BBX 2 9 0 0
BITMAP
80
40
00
C0
C0
C0
C0
C0
C0
ENDCHAR
STARTCHAR 00ED
ENCODING 237
SWIDTH 360 0
DWIDTH 3 0
BBX 2 9 0 0
BITMAP
40
80
00
C0
C0
C0
C0
C0
C0
ENDCHAR
STARTCHAR 00EE
ENCODING 238
SWIDTH 360 0
DWIDTH 3 0
BBX 3 9 0 0
BITMAP
40
A0
00
C0
C0
C0
C0
C0
C0
ENDCHAR
STARTCHAR 00EF
ENCODING 239
SWIDTH 360 0
DWIDTH 3 0
BBX 3 8 0 0
BITMAP
A0
00
C0
C0
C0
C0
C0
C0
ENDCHAR
STARTCHAR 00F0
ENCODING 240
SWIDTH 720 0
DWIDTH 6 0
BBX 5 9 0 0
BITMAP
50
60
A0
70
D8
D8
D8
D8
70
ENDCHAR
STARTCHAR 00F1
ENCODING 241
SWIDTH 720 0
DWIDTH 6 0
BBX 5 9 0 0
BITMAP
50
A0
00
B0
D8
D8
D8
D8
D8
ENDCHAR
STARTCHAR 00F2
ENCODING 242
SWIDTH 720 0
DWIDTH 6 0
BBX 5 9 0 0
BITMAP
40
20
00
70
D8
D8
D8
D8
70
ENDCHAR
STARTCHAR 00F3
ENCODING 243
SWIDTH 720 0
DWIDTH 6 0
BBX 5 9 0 0
BITMAP
10
20
00
70
D8
D8
D8
D8
70
ENDCHAR
STARTCHAR 00F4
ENCODING 244
SWIDTH 720 0
DWIDTH 6 0
BBX 5 9 0 0
BITMAP
20
50
00
70
D8
D8
D8
D8
70
ENDCHAR
STARTCHAR 00F5
ENCODING 245
SWIDTH 720 0
DWIDTH 6 0
BBX 5 9 0 0
BITMAP
50
A0
00
70
D8
D8
D8
D8
70
ENDCHAR
STARTCHAR 00F6
ENCODING 246
SWIDTH 720 0
DWIDTH 6 0
BBX 5 8 0 0
BITMAP
50
00
70
D8
D8
D8
D8
70
ENDCHAR
STARTCHAR 00F7
ENCODING 247
SWIDTH 720 0
DWIDTH 6 0
BBX 6 5 0 1
BITMAP
30
00
FC
00
30
ENDCHAR
STARTCHAR 00F8
ENCODING 248
SWIDTH 720 0
DWIDTH 6 0
BBX 7 6 -1 0
BITMAP
3A
6C
7C
6C
6C
B8
ENDCHAR
STARTCHAR 00F9
ENCODING 249
SWIDTH 720 0
DWIDTH 6 0
BBX 5 9 0 0
BITMAP
40
20
00
D8
D8
D8
D8
D8
68
ENDCHAR
STARTCHAR 00FA
ENCODING 250
SWIDTH 720 0
DWIDTH 6 0
BBX 5 9 0 0
BITMAP
10
20
00
D8
D8
D8
D8
D8
68
ENDCHAR
STARTCHAR 00FB
ENCODING 251
SWIDTH 720 0
DWIDTH 6 0
BBX 5 9 0 0
BITMAP
20
50
00
D8
D8
D8
D8
D8
68
ENDCHAR
STARTCHAR 00FC
ENCODING 252
SWIDTH 720 0
DWIDTH 6 0
BBX 5 8 0 0
BITMAP
50
00
D8
D8
D8
D8
D8
68
ENDCHAR
STARTCHAR 00FD
ENCODING 253
SWIDTH 720 0
DWIDTH 6 0
BBX 5 11 0 -2
BITMAP
10
20
00
D8
D8
D8
D8
78
30
30
60
ENDCHAR
STARTCHAR 00FE
ENCODING 254
SWIDTH 720 0
DWIDTH 6 0
BBX 5 10 0 -2
BITMAP
C0
C0
F0
D8
C8
C8
D8
F0
C0
C0
ENDCHAR
STARTCHAR 00FF
ENCODING 255
SWIDTH 720 0
DWIDTH 6 0
BBX 5 10 0 -2
BITMAP
50
00
D8
D8
D8
D8
78
30
30
60
ENDCHAR
STARTCHAR 0100
ENCODING 256
SWIDTH 960 0
DWIDTH 8 0
BBX 7 10 0 0
BITMAP
38
00
38
38
6C
6C
6C
FE
C6
C6
ENDCHAR
STARTCHAR 0101
ENCODING 257
SWIDTH 720 0
DWIDTH 6 0
BBX 6 8 0 0
BITMAP
70
00
70
98
78
D8
D8
6C
ENDCHAR
STARTCHAR 0102
ENCODING 258
SWIDTH 960 0
DWIDTH 8 0
BBX 7 11 0 0
BITMAP
24
18
00
38
38
6C
6C
6C
FE
C6
C6
ENDCHAR
STARTCHAR 0103
ENCODING 259
SWIDTH 720 0
DWIDTH 6 0
BBX 6 9 0 0
BITMAP
48
30
00
70
98
78
D8
D8
6C
ENDCHAR
STARTCHAR 0104
ENCODING 260
SWIDTH 960 0
DWIDTH 8 0
BBX 7 10 0 -2
BITMAP
38
38
6C
6C
6C
FE
C6
C6
10
18
ENDCHAR
STARTCHAR 0105
ENCODING 261
SWIDTH 720 0
DWIDTH 6 0
BBX 6 8 0 -2
BITMAP
70
98
78
D8
D8
6C
20
30
ENDCHAR
STARTCHAR 0106
ENCODING 262
SWIDTH 960 0
DWIDTH 8 0
BBX 7 11 0 0
BITMAP
08
10
00
3C
66
C2
C0
C0
C2
66
3C
ENDCHAR
STARTCHAR 0107
ENCODING 263
SWIDTH 600 0
DWIDTH 5 0
BBX 4 9 0 0
BITMAP
20
40
00
70
D0
C0
C0
D0
70
ENDCHAR
STARTCHAR 0108
ENCODING 264
SWIDTH 960 0
DWIDTH 8 0
BBX 7 11 0 0
BITMAP
10
28
00
3C
66
C2
C0
C0
C2
66
3C
ENDCHAR
STARTCHAR 0109
ENCODING 265
SWIDTH 600 0
DWIDTH 5 0
BBX 4 9 0 0
BITMAP
20
50
00
70
D0
C0
C0
D0
70
ENDCHAR
STARTCHAR 010A
ENCODING 266
SWIDTH 960 0
DWIDTH 8 0
BBX 7 10 0 0
BITMAP
10
00
3C
66
C2
C0
C0
C2
66
3C
ENDCHAR
STARTCHAR 010B
ENCODING 267
SWIDTH 600 0
DWIDTH 5 0
BBX 4 8 0 0
BITMAP
20
00
70
D0
C0
C0
D0
70
ENDCHAR
STARTCHAR 010C
ENCODING 268
SWIDTH 960 0
DWIDTH 8 0
BBX 7 11 0 0
BITMAP
28
10
00
3C
66
C2
C0
C0
C2
66
3C
ENDCHAR
STARTCHAR 010D
ENCODING 269
SWIDTH 600 0
DWIDTH 5 0
BBX 4 9 0 0
BITMAP
50
20
00
70
D0
C0
C0
D0
70
ENDCHAR
STARTCHAR 010E
ENCODING 270
SWIDTH 840 0
DWIDTH 7 0
BBX 6 11 0 0
BITMAP
50
20
00
F0
D8
CC
CC
CC
CC
D8
F0
ENDCHAR
STARTCHAR 010F
ENCODING 271
SWIDTH 1080 0
DWIDTH 9 0
BBX 8 8 0 0
BITMAP
1B
1B
79
DA
D8
D8
D8
78
ENDCHAR
STARTCHAR 0110
ENCODING 272
SWIDTH 840 0
DWIDTH 7 0
BBX 7 8 -1 0
BITMAP
78
6C
66
F6
66
66
6C
78
ENDCHAR
STARTCHAR 0111
ENCODING 273
SWIDTH 720 0
DWIDTH 6 0
BBX 5 8 0 0
BITMAP
18
78
78
D8
D8
D8
D8
78
ENDCHAR
STARTCHAR 0112
ENCODING 274
SWIDTH 720 0
DWIDTH 6 0
BBX 5 10 0 0
BITMAP
70
00
F8
C0
C0
F8
C0
C0
C0
F8
ENDCHAR
STARTCHAR 0113
ENCODING 275
SWIDTH 720 0
DWIDTH 6 0
BBX 5 8 0 0
BITMAP
70
00
70
D8
F8
C0
D8
70
ENDCHAR
STARTCHAR 0114
ENCODING 276
SWIDTH 720 0
DWIDTH 6 0
BBX 5 11 0 0
BITMAP
90
60
00
F8
C0
C0
F8
C0
C0
C0
F8
ENDCHAR
STARTCHAR 0115
ENCODING 277
SWIDTH 720 0
DWIDTH 6 0
BBX 5 9 0 0
BITMAP
48
30
00
70
D8
F8
C0
D8
70
ENDCHAR
STARTCHAR 0116
ENCODING 278
SWIDTH 720 0
DWIDTH 6 0
BBX 5 10 0 0
BITMAP
20
00
F8
C0
C0
F8
C0
C0
C0
F8
ENDCHAR
STARTCHAR 0117
ENCODING 279
SWIDTH 720 0
DWIDTH 6 0
BBX 5 8 0 0
BITMAP
20
00
70
D8
F8
C0
D8
70
ENDCHAR
STARTCHAR 0118
ENCODING 280
SWIDTH 720 0
DWIDTH 6 0
BBX 5 10 0 -2
BITMAP
F8
C0
C0
F8
C0
C0
C0
F8
40
60
ENDCHAR
STARTCHAR 0119
ENCODING 281
SWIDTH 720 0
DWIDTH 6 0
BBX 5 8 0 -2
BITMAP
70
D8
F8
C0
D8
70
20
30
ENDCHAR
STARTCHAR 011A
ENCODING 282
SWIDTH 720 0
DWIDTH 6 0
BBX 5 11 0 0
BITMAP
50
20
00
F8
C0
C0
F8
C0
C0
C0
F8
ENDCHAR
STARTCHAR 011B
ENCODING 283
SWIDTH 720 0
DWIDTH 6 0
BBX 5 9 0 0
BITMAP
50
20
00
70
D8
F8
C0
D8
70
ENDCHAR
STARTCHAR 011C
ENCODING 284
SWIDTH 960 0
DWIDTH 8 0
BBX 7 11 0 0
BITMAP
10
28
00
3C
66
C2
C0
CE
C6
66
3A
ENDCHAR
STARTCHAR 011D
ENCODING 285
SWIDTH 720 0
DWIDTH 6 0
BBX 5 11 0 -2
BITMAP
20
50
00
68
D8
D8
D8
D8
78
18
70
ENDCHAR
STARTCHAR 011E
ENCODING 286
SWIDTH 960 0
DWIDTH 8 0
BBX 7 11 0 0
BITMAP
24
18
00
3C
66
C2
C0
CE
C6
66
3A
ENDCHAR
STARTCHAR 011F
ENCODING 287
SWIDTH 720 0
DWIDTH 6 0
BBX 5 11 0 -2
BITMAP
48
30
00
68
D8
D8
D8
D8
78
18
70
ENDCHAR
STARTCHAR 0120
ENCODING 288
SWIDTH 960 0
DWIDTH 8 0
BBX 7 10 0 0
BITMAP
10
00
3C
66
C2
C0
CE
C6
66
3A
ENDCHAR
STARTCHAR 0121
ENCODING 289
SWIDTH 720 0
DWIDTH 6 0
BBX 5 10 0 -2
BITMAP
20
00
68
D8
D8
D8
D8
78
18
70
ENDCHAR
STARTCHAR 0122
ENCODING 290
SWIDTH 960 0
DWIDTH 8 0
BBX 7 13 0 -5
BITMAP
3C
66
C2
C0
CE
C6
66
3A
00
18
18
08
10
ENDCHAR
STARTCHAR 0123
ENCODING 291
SWIDTH 720 0
DWIDTH 6 0
BBX 5 13 0 -2
BITMAP
10
20
30
30
00
68
D8
D8
D8
D8
78
18
70
ENDCHAR
STARTCHAR 0124
ENCODING 292
SWIDTH 840 0
DWIDTH 7 0
BBX 6 11 0 0
BITMAP
10
28
00
CC
CC
CC
FC
CC
CC
CC
CC
ENDCHAR
STARTCHAR 0125
ENCODING 293
SWIDTH 720 0
DWIDTH 6 0
BBX 5 11 0 0
BITMAP
40
A0
00
C0
C0
F0
D8
D8
D8
D8
D8
ENDCHAR
STARTCHAR 0126
ENCODING 294
SWIDTH 840 0
DWIDTH 7 0
BBX 6 8 0 0
BITMAP
CC
FC
CC
FC
CC
CC
CC
CC
ENDCHAR
STARTCHAR 0127
ENCODING 295
SWIDTH 720 0
DWIDTH 6 0
BBX 6 8 -1 0
BITMAP
60
F0
78
6C
6C
6C
6C
6C
ENDCHAR
STARTCHAR 0128
ENCODING 296
SWIDTH 360 0
DWIDTH 3 0
BBX 4 11 -1 0
BITMAP
50
A0
00
60
60
60
60
60
60
60
60
ENDCHAR
STARTCHAR 0129
ENCODING 297
SWIDTH 360 0
DWIDTH 3 0
BBX 4 9 -1 0
BITMAP
50
A0
00
60
60
60
60
60
60
ENDCHAR
STARTCHAR 012A
ENCODING 298
SWIDTH 360 0
DWIDTH 3 0
BBX 3 10 0 0
BITMAP
E0
00
C0
C0
C0
C0
C0
C0
C0
C0
ENDCHAR
STARTCHAR 012B
ENCODING 299
SWIDTH 360 0
DWIDTH 3 0
BBX 3 8 0 0
BITMAP
E0
00
C0
C0
C0
C0
C0
C0
ENDCHAR
STARTCHAR 012C
ENCODING 300
SWIDTH 360 0
DWIDTH 3 0
BBX 4 11 -1 0
BITMAP
90
60
00
60
60
60
60
60
60
60
60
ENDCHAR
STARTCHAR 012D
ENCODING 301
SWIDTH 360 0
DWIDTH 3 0
BBX 4 9 -1 0
BITMAP
90
60
00
60
60
60
60
60
60
ENDCHAR
STARTCHAR 012E
ENCODING 302
SWIDTH 360 0
DWIDTH 3 0
BBX 2 10 0 -2
BITMAP
C0
C0
C0
C0
C0
C0
C0
C0
80
C0
ENDCHAR
STARTCHAR 012F
ENCODING 303
SWIDTH 360 0
DWIDTH 3 0
BBX 2 10 0 -2
BITMAP
C0
00
C0
C0
C0
C0
C0
C0
80
C0
ENDCHAR
STARTCHAR 0130
ENCODING 304
SWIDTH 360 0
DWIDTH 3 0
BBX 2 10 0 0
BITMAP
40
00
C0
C0
C0
C0
C0
C0
C0
C0
ENDCHAR
STARTCHAR 0131
ENCODING 305
SWIDTH 360 0
DWIDTH 3 0
BBX 2 6 0 0
BITMAP
C0
C0
C0
C0
C0
C0
ENDCHAR
STARTCHAR 0132
ENCODING 306
SWIDTH 1080 0
DWIDTH 9 0
BBX 8 8 0 0
BITMAP
C3
C3
C3
C3
C3
C3
DB
CE
ENDCHAR
STARTCHAR 0133
ENCODING 307
SWIDTH 720 0
DWIDTH 6 0
BBX 5 10 0 -2
BITMAP
D8
00
D8
D8
D8
D8
D8
D8
18
30
ENDCHAR
STARTCHAR 0134
ENCODING 308
SWIDTH 720 0
DWIDTH 6 0
BBX 5 11 0 0
BITMAP
10
28
00
18
18
18
18
18
18
D8
70
ENDCHAR
STARTCHAR 0135
ENCODING 309
SWIDTH 360 0
DWIDTH 3 0
BBX 3 11 -1 -2
BITMAP
40
A0
00
60
60
60
60
60
60
60
C0
ENDCHAR
STARTCHAR 0136
ENCODING 310
SWIDTH 840 0
DWIDTH 7 0
BBX 7 13 0 -5
BITMAP
CC
D8
F0
E0
F0
D8
CC
C6
00
30
30
10
20
ENDCHAR
STARTCHAR 0137
ENCODING 311
SWIDTH 720 0
DWIDTH 6 0
BBX 6 13 0 -5
BITMAP
C0
C0
D8
F0
E0
F0
D8
CC
00
30
30
10
20
ENDCHAR
STARTCHAR 0138
ENCODING 312
SWIDTH 720 0
DWIDTH 6 0
BBX 6 6 0 0
BITMAP
D8
F0
E0
F0
D8
CC
ENDCHAR
STARTCHAR 0139
ENCODING 313
SWIDTH 720 0
DWIDTH 6 0
BBX 5 11 0 0
BITMAP
20
40
00
C0
C0
C0
C0
C0
C0
C0
F8
ENDCHAR
STARTCHAR 013A
ENCODING 314
SWIDTH 360 0
DWIDTH 3 0
BBX 2 11 0 0
BITMAP
40
80
00
C0
C0
C0
C0
C0
C0
C0
C0
ENDCHAR
STARTCHAR 013B
ENCODING 315
SWIDTH 720 0
DWIDTH 6 0
BBX 5 13 0 -5
BITMAP
C0
C0
C0
C0
C0
C0
C0
F8
00
60
60
20
40
ENDCHAR
STARTCHAR 013C
ENCODING 316
SWIDTH 360 0
DWIDTH 3 0
BBX 2 13 0 -5
BITMAP
C0
C0
C0
C0
C0
C0
C0
C0
00
C0
C0
40
80
ENDCHAR
STARTCHAR 013D
ENCODING 317
SWIDTH 1080 0
DWIDTH 9 0
BBX 8 8 0 0
BITMAP
C3
C3
C1
C2
C0
C0
C0
F8
ENDCHAR
STARTCHAR 013E
ENCODING 318
SWIDTH 720 0
DWIDTH 6 0
BBX 5 8 0 0
BITMAP
D8
D8
C8
D0
C0
C0
C0
C0
ENDCHAR
STARTCHAR 013F
ENCODING 319
SWIDTH 1080 0
DWIDTH 9 0
BBX 8 8 0 0
BITMAP
C0
C0
C0
C0
C3
C0
C0
F8
ENDCHAR
STARTCHAR 0140
ENCODING 320
SWIDTH 720 0
DWIDTH 6 0
BBX 5 8 0 0
BITMAP
C0
C0
C0
C0
D8
C0
C0
C0
ENDCHAR
STARTCHAR 0141
ENCODING 321
SWIDTH 720 0
DWIDTH 6 0
BBX 6 8 -1 0
BITMAP
60
60
60
70
E0
60
60
7C
ENDCHAR
STARTCHAR 0142
ENCODING 322
SWIDTH 360 0
DWIDTH 3 0
BBX 4 8 -1 0
BITMAP
60
60
60
70
E0
60
60
60
ENDCHAR
STARTCHAR 0143
ENCODING 323
SWIDTH 960 0
DWIDTH 8 0
BBX 7 11 0 0
BITMAP
08
10
00
C6
E6
E6
D6
D6
CE
CE
C6
ENDCHAR
STARTCHAR 0144
ENCODING 324
SWIDTH 720 0
DWIDTH 6 0
BBX 5 9 0 0
BITMAP
10
20
00
B0
D8
D8
D8
D8
D8
ENDCHAR
STARTCHAR 0145
ENCODING 325
SWIDTH 960 0
DWIDTH 8 0
BBX 7 13 0 -5
BITMAP
C6
E6
E6
D6
D6
CE
CE
C6
00
18
18
08
10
ENDCHAR
STARTCHAR 0146
ENCODING 326
SWIDTH 720 0
DWIDTH 6 0
BBX 5 11 0 -5
BITMAP
B0
D8
D8
D8
D8
D8
00
30
30
10
20
ENDCHAR
STARTCHAR 0147
ENCODING 327
SWIDTH 960 0
DWIDTH 8 0
BBX 7 11 0 0
BITMAP
28
10
00
C6
E6
E6
D6
D6
CE
CE
C6
ENDCHAR
STARTCHAR 0148
ENCODING 328
SWIDTH 720 0
DWIDTH 6 0
BBX 5 9 0 0
BITMAP
50
20
00
B0
D8
D8
D8
D8
D8
ENDCHAR
STARTCHAR 0149
ENCODING 329
SWIDTH 1080 0
DWIDTH 9 0
BBX 8 8 0 0
BITMAP
C0
C0
56
9B
1B
1B
1B
1B
ENDCHAR
STARTCHAR 014A
ENCODING 330
SWIDTH 960 0
DWIDTH 8 0
BBX 7 10 0 -2
BITMAP
C6
E6
E6
D6
D6
CE
CE
C6
06
0C
ENDCHAR
STARTCHAR 014B
ENCODING 331
SWIDTH 720 0
DWIDTH 6 0
BBX 5 8 0 -2
BITMAP
B0
D8
D8
D8
D8
D8
18
30
ENDCHAR
STARTCHAR 014C
ENCODING 332
SWIDTH 960 0
DWIDTH 8 0
BBX 7 10 0 0
BITMAP
38
00
38
6C
C6
C6
C6
C6
6C
38
ENDCHAR
STARTCHAR 014D
ENCODING 333
SWIDTH 720 0
DWIDTH 6 0
BBX 5 8 0 0
BITMAP
70
00
70
D8
D8
D8
D8
70
ENDCHAR
STARTCHAR 014E
ENCODING 334
SWIDTH 960 0
DWIDTH 8 0
BBX 7 11 0 0
BITMAP
24
18
00
38
6C
C6
C6
C6
C6
6C
38
ENDCHAR
STARTCHAR 014F
ENCODING 335
SWIDTH 720 0
DWIDTH 6 0
BBX 5 9 0 0
BITMAP
48
30
00
70
D8
D8
D8
D8
70
ENDCHAR
STARTCHAR 0150
ENCODING 336
SWIDTH 960 0
DWIDTH 8 0
BBX 7 11 0 0
BITMAP
14
28
00
38
6C
C6
C6
C6
C6
6C
38
ENDCHAR
STARTCHAR 0151
ENCODING 337
SWIDTH 720 0
DWIDTH 6 0
BBX 5 9 0 0
BITMAP
28
50
00
70
D8
D8
D8
D8
70
ENDCHAR
STARTCHAR 0152
ENCODING 338
SWIDTH 1200 0
DWIDTH 10 0
BBX 9 8 0 0
BITMAP
3F80
6C00
CC00
CF80
CC00
CC00
6C00
3F80
ENDCHAR
STARTCHAR 0153
ENCODING 339
SWIDTH 1200 0
DWIDTH 10 0
BBX 9 6 0 0
BITMAP
7700
CD80
CF80
CC00
CD80
7700
ENDCHAR
STARTCHAR 0154
ENCODING 340
SWIDTH 840 0
DWIDTH 7 0
BBX 6 11 0 0
BITMAP
10
20
00
F8
CC
CC
CC
F8
CC
CC
CC
ENDCHAR
STARTCHAR 0155
ENCODING 341
SWIDTH 480 0
DWIDTH 4 0
BBX 4 9 0 0
BITMAP
20
40
00
B0
E0
C0
C0
C0
C0
ENDCHAR
STARTCHAR 0156
ENCODING 342
SWIDTH 840 0
DWIDTH 7 0
BBX 6 13 0 -5
BITMAP
F8
CC
CC
CC
F8
CC
CC
CC
00
30
30
10
20
ENDCHAR
STARTCHAR 0157
ENCODING 343
SWIDTH 480 0
DWIDTH 4 0
BBX 4 11 0 -5
BITMAP
B0
E0
C0
C0
C0
C0
00
C0
C0
40
80
ENDCHAR
STARTCHAR 0158
ENCODING 344
SWIDTH 840 0
DWIDTH 7 0
BBX 6 11 0 0
BITMAP
50
20
00
F8
CC
CC
CC
F8
CC
CC
CC
ENDCHAR
STARTCHAR 0159
ENCODING 345
SWIDTH 480 0
DWIDTH 4 0
BBX 4 9 0 0
BITMAP
A0
40
00
B0
E0
C0
C0
C0
C0
ENDCHAR
STARTCHAR 015A
ENCODING 346
SWIDTH 840 0
DWIDTH 7 0
BBX 6 11 0 0
BITMAP
10
20
00
78
CC
E0
78
1C
8C
CC
78
ENDCHAR
STARTCHAR 015B
ENCODING 347
SWIDTH 720 0
DWIDTH 6 0
BBX 5 9 0 0
BITMAP
10
20
00
70
D8
70
18
D8
70
ENDCHAR
STARTCHAR 015C
ENCODING 348
SWIDTH 840 0
DWIDTH 7 0
BBX 6 11 0 0
BITMAP
20
50
00
78
CC
E0
78
1C
8C
CC
78
ENDCHAR
STARTCHAR 015D
ENCODING 349
SWIDTH 720 0
DWIDTH 6 0
BBX 5 9 0 0
BITMAP
20
50
00
70
D8
70
18
D8
70
ENDCHAR
STARTCHAR 015E
ENCODING 350
SWIDTH 840 0
DWIDTH 7 0
BBX 6 10 0 -2
BITMAP
78
CC
E0
78
1C
8C
CC
78
10
30
ENDCHAR
STARTCHAR 015F
ENCODING 351
SWIDTH 720 0
DWIDTH 6 0
BBX 5 8 0 -2
BITMAP
70
D8
70
18
D8
70
20
60
ENDCHAR
STARTCHAR 0160
ENCODING 352
SWIDTH 840 0
DWIDTH 7 0
BBX 6 11 0 0
BITMAP
28
10
00
78
CC
E0
78
1C
8C
CC
78
ENDCHAR
STARTCHAR 0161
ENCODING 353
SWIDTH 720 0
DWIDTH 6 0
BBX 5 9 0 0
BITMAP
50
20
00
70
D8
70
18
D8
70
ENDCHAR
STARTCHAR 0162
ENCODING 354
SWIDTH 840 0
DWIDTH 7 0
BBX 6 10 0 -2
BITMAP
FC
30
30
30
30
30
30
30
10
30
ENDCHAR
STARTCHAR 0163
ENCODING 355
SWIDTH 480 0
DWIDTH 4 0
BBX 4 10 -1 -2
BITMAP
60
60
F0
60
60
60
60
30
20
60
ENDCHAR
STARTCHAR 0164
ENCODING 356
SWIDTH 840 0
DWIDTH 7 0
BBX 6 11 0 0
BITMAP
28
10
00
FC
30
30
30
30
30
30
30
ENDCHAR
STARTCHAR 0165
ENCODING 357
SWIDTH 840 0
DWIDTH 7 0
BBX 7 8 -1 0
BITMAP
66
66
F2
64
60
60
60
30
ENDCHAR
STARTCHAR 0166
ENCODING 358
SWIDTH 840 0
DWIDTH 7 0
BBX 6 8 0 0
BITMAP
FC
30
30
78
30
30
30
30
ENDCHAR
STARTCHAR 0167
ENCODING 359
SWIDTH 480 0
DWIDTH 4 0
BBX 4 8 -1 0
BITMAP
60
60
F0
60
F0
60
60
30
ENDCHAR
STARTCHAR 0168
ENCODING 360
SWIDTH 840 0
DWIDTH 7 0
BBX 6 11 0 0
BITMAP
28
50
00
CC
CC
CC
CC
CC
CC
CC
78
ENDCHAR
STARTCHAR 0169
ENCODING 361
SWIDTH 720 0
DWIDTH 6 0
BBX 5 9 0 0
BITMAP
28
50
00
D8
D8
D8
D8
D8
68
ENDCHAR
STARTCHAR 016A
ENCODING 362
SWIDTH 840 0
DWIDTH 7 0
BBX 6 10 0 0
BITMAP
38
00
CC
CC
CC
CC
CC
CC
CC
78
ENDCHAR
STARTCHAR 016B
ENCODING 363
SWIDTH 720 0
DWIDTH 6 0
BBX 5 8 0 0
BITMAP
70
00
D8
D8
D8
D8
D8
68
ENDCHAR
STARTCHAR 016C
ENCODING 364
SWIDTH 840 0
DWIDTH 7 0
BBX 6 11 0 0
BITMAP
48
30
00
CC
CC
CC
CC
CC
CC
CC
78
ENDCHAR
STARTCHAR 016D
ENCODING 365
SWIDTH 720 0
DWIDTH 6 0
BBX 5 9 0 0
BITMAP
48
30
00
D8
D8
D8
D8
D8
68
ENDCHAR
STARTCHAR 016E
ENCODING 366
SWIDTH 840 0
DWIDTH 7 0
BBX 6 12 0 0
BITMAP
10
28
10
00
CC
CC
CC
CC
CC
CC
CC
78
ENDCHAR
STARTCHAR 016F
ENCODING 367
SWIDTH 720 0
DWIDTH 6 0
BBX 5 10 0 0
BITMAP
20
50
20
00
D8
D8
D8
D8
D8
68
ENDCHAR
STARTCHAR 0170
ENCODING 368
SWIDTH 840 0
DWIDTH 7 0
BBX 6 11 0 0
BITMAP
28
50
00
CC
CC
CC
CC
CC
CC
CC
78
ENDCHAR
STARTCHAR 0171
ENCODING 369
SWIDTH 720 0
DWIDTH 6 0
BBX 5 9 0 0
BITMAP
28
50
00
D8
D8
D8
D8
D8
68
ENDCHAR
STARTCHAR 0172
ENCODING 370
SWIDTH 840 0
DWIDTH 7 0
BBX 6 10 0 -2
BITMAP
CC
CC
CC
CC
CC
CC
CC
78
20
30
ENDCHAR
STARTCHAR 0173
ENCODING 371
SWIDTH 720 0
DWIDTH 6 0
BBX 5 8 0 -2
BITMAP
D8
D8
D8
D8
D8
68
20
30
ENDCHAR
STARTCHAR 0174
ENCODING 372
SWIDTH 1320 0
DWIDTH 11 0
BBX 10 11 0 0
BITMAP
0400
0A00
0000
CCC0
CCC0
CCC0
6D80
6D80
7F80
3300
3300
ENDCHAR
STARTCHAR 0175
ENCODING 373
SWIDTH 960 0
DWIDTH 8 0
BBX 7 9 0 0
BITMAP
10
28
00
D6
D6
D6
6C
6C
6C
ENDCHAR
STARTCHAR 0176
ENCODING 374
SWIDTH 1080 0
DWIDTH 9 0
BBX 8 11 0 0
BITMAP
08
14
00
C3
C3
66
66
3C
18
18
18
ENDCHAR
STARTCHAR 0177
ENCODING 375
SWIDTH 720 0
DWIDTH 6 0
BBX 5 11 0 -2
BITMAP
20
50
00
D8
D8
D8
D8
78
30
30
60
ENDCHAR
STARTCHAR 0178
ENCODING 376
SWIDTH 960 0
DWIDTH 8 0
BBX 8 10 0 0
BITMAP
14
00
C3
C3
66
66
3C
18
18
18
ENDCHAR
STARTCHAR 0179
ENCODING 377
SWIDTH 840 0
DWIDTH 7 0
BBX 6 11 0 0
BITMAP
08
10
00
FC
0C
18
30
70
60
C0
FC
ENDCHAR
STARTCHAR 017A
ENCODING 378
SWIDTH 720 0
DWIDTH 6 0
BBX 5 9 0 0
BITMAP
10
20
00
F8
18
30
60
C0
F8
ENDCHAR
STARTCHAR 017B
ENCODING 379
SWIDTH 840 0
DWIDTH 7 0
BBX 6 10 0 0
BITMAP
10
00
FC
0C
18
30
70
60
C0
FC
ENDCHAR
STARTCHAR 017C
ENCODING 380
SWIDTH 720 0
DWIDTH 6 0
BBX 5 8 0 0
BITMAP
20
00
F8
18
30
60
C0
F8
ENDCHAR
STARTCHAR 017D
ENCODING 381
SWIDTH 840 0
DWIDTH 7 0
BBX 6 11 0 0
BITMAP
28
10
00
FC
0C
18
30
70
60
C0
FC
ENDCHAR
STARTCHAR 017E
ENCODING 382
SWIDTH 600 0
DWIDTH 5 0
BBX 5 9 0 0
BITMAP
50
20
00
F8
18
30
60
C0
F8
ENDCHAR
STARTCHAR 0186
ENCODING 390
SWIDTH 960 0
DWIDTH 8 0
BBX 7 8 0 0
BITMAP
78
CC
86
06
06
86
CC
78
ENDCHAR
STARTCHAR 0189
ENCODING 393
SWIDTH 840 0
DWIDTH 7 0
BBX 7 8 -1 0
BITMAP
78
6C
66
F6
66
66
6C
78
ENDCHAR
STARTCHAR 018E
ENCODING 398
SWIDTH 720 0
DWIDTH 6 0
BBX 5 8 0 0
BITMAP
F8
18
18
18
F8
18
18
F8
ENDCHAR
STARTCHAR 0192
ENCODING 402
SWIDTH 720 0
DWIDTH 6 0
BBX 5 9 0 -2
BITMAP
38
60
F8
60
60
60
60
60
C0
ENDCHAR
STARTCHAR 0197
ENCODING 407
SWIDTH 360 0
DWIDTH 3 0
BBX 4 8 -1 0
BITMAP
60
60
60
F0
60
60
60
60
ENDCHAR
STARTCHAR 019A
ENCODING 410
SWIDTH 360 0
DWIDTH 3 0
BBX 4 8 -1 0
BITMAP
60
60
60
F0
60
60
60
60
ENDCHAR
STARTCHAR 019D
ENCODING 413
SWIDTH 960 0
DWIDTH 8 0
BBX 8 10 -1 -2
BITMAP
63
73
73
6B
6B
67
67
63
60
C0
ENDCHAR
STARTCHAR 019F
ENCODING 415
SWIDTH 960 0
DWIDTH 8 0
BBX 7 8 0 0
BITMAP
38
6C
C6
FE
C6
C6
6C
38
ENDCHAR
STARTCHAR 01A0
ENCODING 416
SWIDTH 960 0
DWIDTH 8 0
BBX 9 8 0 0
BITMAP
3980
6D80
C680
C700
C600
C600
6C00
3800
ENDCHAR
STARTCHAR 01A1
ENCODING 417
SWIDTH 720 0
DWIDTH 6 0
BBX 7 6 0 0
BITMAP
76
DE
DA
DC
D8
70
ENDCHAR
STARTCHAR 01A7
ENCODING 423
SWIDTH 840 0
DWIDTH 7 0
BBX 6 8 0 0
BITMAP
78
CC
1C
78
E0
C4
CC
78
ENDCHAR
STARTCHAR 01A8
ENCODING 424
SWIDTH 720 0
DWIDTH 6 0
BBX 5 6 0 0
BITMAP
70
D8
70
C0
D8
70
ENDCHAR
STARTCHAR 01AE
ENCODING 430
SWIDTH 840 0
DWIDTH 7 0
BBX 6 10 0 -2
BITMAP
FC
30
30
30
30
30
30
30
30
18
ENDCHAR
STARTCHAR 01AF
ENCODING 431
SWIDTH 840 0
DWIDTH 7 0
BBX 8 8 0 0
BITMAP
CF
CF
CD
CE
CC
CC
CC
78
ENDCHAR
STARTCHAR 01B0
ENCODING 432
SWIDTH 720 0
DWIDTH 6 0
BBX 7 6 0 0
BITMAP
DE
DE
DA
DC
D8
68
ENDCHAR
STARTCHAR 01B5
ENCODING 437
SWIDTH 840 0
DWIDTH 7 0
BBX 6 8 0 0
BITMAP
FC
0C
18
78
70
60
C0
FC
ENDCHAR
STARTCHAR 01B6
ENCODING 438
SWIDTH 720 0
DWIDTH 6 0
BBX 5 6 0 0
BITMAP
F8
18
78
60
C0
F8
ENDCHAR
STARTCHAR 01BB
ENCODING 443
SWIDTH 720 0
DWIDTH 6 0
BBX 5 8 0 0
BITMAP
70
D8
18
F8
30
60
C0
F8
ENDCHAR
STARTCHAR 01BC
ENCODING 444
SWIDTH 720 0
DWIDTH 6 0
BBX 5 8 0 0
BITMAP
F8
C0
C0
F0
18
98
D8
70
ENDCHAR
STARTCHAR 01C0
ENCODING 448
SWIDTH 360 0
DWIDTH 3 0
BBX 1 10 1 -2
BITMAP
80
80
80
80
80
80
80
80
80
80
ENDCHAR
STARTCHAR 01C2
ENCODING 450
SWIDTH 720 0
DWIDTH 6 0
BBX 5 10 0 -1
BITMAP
20
20
20
20
F8
20
F8
20
20
20
ENDCHAR
STARTCHAR 01C3
ENCODING 451
SWIDTH 480 0
DWIDTH 4 0
BBX 2 8 1 0
BITMAP
C0
C0
C0
C0
80
80
00
C0
ENDCHAR
STARTCHAR 01CD
ENCODING 461
SWIDTH 960 0
DWIDTH 8 0
BBX 7 11 0 0
BITMAP
28
10
00
38
38
6C
6C
6C
FE
C6
C6
ENDCHAR
STARTCHAR 01CE
ENCODING 462
SWIDTH 720 0
DWIDTH 6 0
BBX 6 9 0 0
BITMAP
50
20
00
70
98
78
D8
D8
6C
ENDCHAR
STARTCHAR 01CF
ENCODING 463
SWIDTH 360 0
DWIDTH 3 0
BBX 3 11 0 0
BITMAP
A0
40
00
C0
C0
C0
C0
C0
C0
C0
C0
ENDCHAR
STARTCHAR 01D0
ENCODING 464
SWIDTH 360 0
DWIDTH 3 0
BBX 3 9 0 0
BITMAP
A0
40
00
C0
C0
C0
C0
C0
C0
ENDCHAR
STARTCHAR 01D1
ENCODING 465
SWIDTH 960 0
DWIDTH 8 0
BBX 7 11 0 0
BITMAP
28
10
00
38
6C
C6
C6
C6
C6
6C
38
ENDCHAR
STARTCHAR 01D2
ENCODING 466
SWIDTH 720 0
DWIDTH 6 0
BBX 5 9 0 0
BITMAP
50
20
00
70
D8
D8
D8
D8
70
ENDCHAR
STARTCHAR 01D3
ENCODING 467
SWIDTH 840 0
DWIDTH 7 0
BBX 6 11 0 0
BITMAP
28
10
00
CC
CC
CC
CC
CC
CC
CC
78
ENDCHAR
STARTCHAR 01D4
ENCODING 468
SWIDTH 720 0
DWIDTH 6 0
BBX 5 9 0 0
BITMAP
50
20
00
D8
D8
D8
D8
D8
68
ENDCHAR
STARTCHAR 01D5
ENCODING 469
SWIDTH 840 0
DWIDTH 7 0
BBX 6 12 0 0
BITMAP
38
00
48
00
CC
CC
CC
CC
CC
CC
CC
78
ENDCHAR
STARTCHAR 01D6
ENCODING 470
SWIDTH 720 0
DWIDTH 6 0
BBX 5 10 0 0
BITMAP
70
00
50
00
D8
D8
D8
D8
D8
68
ENDCHAR
STARTCHAR 01D7
ENCODING 471
SWIDTH 840 0
DWIDTH 7 0
BBX 6 14 0 0
BITMAP
10
10
20
00
48
00
CC
CC
CC
CC
CC
CC
CC
78
ENDCHAR
STARTCHAR 01D8
ENCODING 472
SWIDTH 720 0
DWIDTH 6 0
BBX 5 11 0 0
BITMAP
10
20
00
50
00
D8
D8
D8
D8
D8
68
ENDCHAR
STARTCHAR 01D9
ENCODING 473
SWIDTH 840 0
DWIDTH 7 0
BBX 6 14 0 0
BITMAP
28
28
10
00
48
00
CC
CC
CC
CC
CC
CC
CC
78
ENDCHAR
STARTCHAR 01DA
ENCODING 474
SWIDTH 720 0
DWIDTH 6 0
BBX 5 11 0 0
BITMAP
50
20
00
50
00
D8
D8
D8
D8
D8
68
ENDCHAR
STARTCHAR 01DB
ENCODING 475
SWIDTH 840 0
DWIDTH 7 0
BBX 6 14 0 0
BITMAP
20
20
10
00
48
00
CC
CC
CC
CC
CC
CC
CC
78
ENDCHAR
STARTCHAR 01DC
ENCODING 476
SWIDTH 720 0
DWIDTH 6 0
BBX 5 11 0 0
BITMAP
40
20
00
50
00
D8
D8
D8
D8
D8
68
ENDCHAR
STARTCHAR 01DD
ENCODING 477
SWIDTH 720 0
DWIDTH 6 0
BBX 5 6 0 0
BITMAP
70
D8
18
F8
D8
70
ENDCHAR
STARTCHAR 01DE
ENCODING 478
SWIDTH 960 0
DWIDTH 8 0
BBX 7 12 0 0
BITMAP
38
00
28
00
38
38
6C
6C
6C
FE
C6
C6
ENDCHAR
STARTCHAR 01DF
ENCODING 479
SWIDTH 720 0
DWIDTH 6 0
BBX 6 10 0 0
BITMAP
70
00
50
00
70
98
78
D8
D8
6C
ENDCHAR
STARTCHAR 01E0
ENCODING 480
SWIDTH 960 0
DWIDTH 8 0
BBX 7 12 0 0
BITMAP
38
00
10
00
38
38
6C
6C
6C
FE
C6
C6
ENDCHAR
STARTCHAR 01E1
ENCODING 481
SWIDTH 720 0
DWIDTH 6 0
BBX 6 10 0 0
BITMAP
70
00
20
00
70
98
78
D8
D8
6C
ENDCHAR
STARTCHAR 01E2
ENCODING 482
SWIDTH 1200 0
DWIDTH 10 0
BBX 9 10 0 0
BITMAP
1C00
0000
3F80
3C00
6C00
6F80
6C00
FC00
CC00
CF80
ENDCHAR
STARTCHAR 01E3
ENCODING 483
SWIDTH 1080 0
DWIDTH 9 0
BBX 8 8 0 0
BITMAP
1C
00
7E
9B
7F
D8
DB
6E
ENDCHAR
STARTCHAR 01E4
ENCODING 484
SWIDTH 960 0
DWIDTH 8 0
BBX 7 8 0 0
BITMAP
3C
66
C2
C0
CE
DE
66
3A
ENDCHAR
STARTCHAR 01E5
ENCODING 485
SWIDTH 720 0
DWIDTH 6 0
BBX 5 8 0 -2
BITMAP
68
D8
D8
D8
D8
F8
18
70
ENDCHAR
STARTCHAR 01E6
ENCODING 486
SWIDTH 960 0
DWIDTH 8 0
BBX 7 11 0 0
BITMAP
28
10
00
3C
66
C2
C0
CE
C6
66
3A
ENDCHAR
STARTCHAR 01E7
ENCODING 487
SWIDTH 720 0
DWIDTH 6 0
BBX 5 11 0 -2
BITMAP
50
20
00
68
D8
D8
D8
D8
78
18
70
ENDCHAR
STARTCHAR 01E8
ENCODING 488
SWIDTH 840 0
DWIDTH 7 0
BBX 7 11 0 0
BITMAP
50
20
00
CC
D8
F0
E0
F0
D8
CC
C6
ENDCHAR
STARTCHAR 01E9
ENCODING 489
SWIDTH 720 0
DWIDTH 6 0
BBX 6 11 0 0
BITMAP
50
20
00
C0
C0
D8
F0
E0
F0
D8
CC
ENDCHAR
STARTCHAR 01EA
ENCODING 490
SWIDTH 960 0
DWIDTH 8 0
BBX 7 10 0 -2
BITMAP
38
6C
C6
C6
C6
C6
6C
38
10
18
ENDCHAR
STARTCHAR 01EB
ENCODING 491
SWIDTH 720 0
DWIDTH 6 0
BBX 5 8 0 -2
BITMAP
70
D8
D8
D8
D8
70
20
30
ENDCHAR
STARTCHAR 01EC
ENCODING 492
SWIDTH 960 0
DWIDTH 8 0
BBX 7 12 0 -2
BITMAP
38
00
38
6C
C6
C6
C6
C6
6C
38
10
18
ENDCHAR
STARTCHAR 01ED
ENCODING 493
SWIDTH 720 0
DWIDTH 6 0
BBX 5 10 0 -2
BITMAP
70
00
70
D8
D8
D8
D8
70
20
30
ENDCHAR
STARTCHAR 01F0
ENCODING 496
SWIDTH 360 0
DWIDTH 3 0
BBX 3 11 -1 -2
BITMAP
A0
40
00
60
60
60
60
60
60
60
C0
ENDCHAR
STARTCHAR 01F4
ENCODING 500
SWIDTH 960 0
DWIDTH 8 0
BBX 7 11 0 0
BITMAP
08
10
00
3C
66
C2
C0
CE
C6
66
3A
ENDCHAR
STARTCHAR 01F5
ENCODING 501
SWIDTH 720 0
DWIDTH 6 0
BBX 5 11 0 -2
BITMAP
10
20
00
68
D8
D8
D8
D8
78
18
70
ENDCHAR
STARTCHAR 01F8
ENCODING 504
SWIDTH 960 0
DWIDTH 8 0
BBX 7 11 0 0
BITMAP
20
10
00
C6
E6
E6
D6
D6
CE
CE
C6
ENDCHAR
STARTCHAR 01F9
ENCODING 505
SWIDTH 720 0
DWIDTH 6 0
BBX 5 9 0 0
BITMAP
40
20
00
B0
D8
D8
D8
D8
D8
ENDCHAR
STARTCHAR 01FA
ENCODING 506
SWIDTH 960 0
DWIDTH 8 0
BBX 7 15 0 0
BITMAP
08
10
10
00
10
28
10
38
38
6C
6C
6C
FE
C6
C6
ENDCHAR
STARTCHAR 01FB
ENCODING 507
SWIDTH 720 0
DWIDTH 6 0
BBX 6 12 0 0
BITMAP
10
20
00
20
50
20
70
98
78
D8
D8
6C
ENDCHAR
STARTCHAR 01FC
ENCODING 508
SWIDTH 1200 0
DWIDTH 10 0
BBX 9 11 0 0
BITMAP
0400
0800
0000
3F80
3C00
6C00
6F80
6C00
FC00
CC00
CF80
ENDCHAR
STARTCHAR 01FD
ENCODING 509
SWIDTH 1080 0
DWIDTH 9 0
BBX 8 9 0 0
BITMAP
08
10
00
7E
9B
7F
D8
DB
6E
ENDCHAR
STARTCHAR 01FE
ENCODING 510
SWIDTH 960 0
DWIDTH 8 0
BBX 7 11 0 0
BITMAP
08
10
00
3A
6C
CE
D6
D6
E6
6C
B8
ENDCHAR
STARTCHAR 01FF
ENCODING 511
SWIDTH 720 0
DWIDTH 6 0
BBX 7 9 -1 0
BITMAP
08
10
00
3A
6C
7C
6C
6C
B8
ENDCHAR
STARTCHAR 0200
ENCODING 512
SWIDTH 960 0
DWIDTH 8 0
BBX 7 11 0 0
BITMAP
50
28
00
38
38
6C
6C
6C
FE
C6
C6
ENDCHAR
STARTCHAR 0201
ENCODING 513
SWIDTH 720 0
DWIDTH 6 0
BBX 6 9 0 0
BITMAP
A0
50
00
70
98
78
D8
D8
6C
ENDCHAR
STARTCHAR 0202
ENCODING 514
SWIDTH 960 0
DWIDTH 8 0
BBX 7 11 0 0
BITMAP
18
24
00
38
38
6C
6C
6C
FE
C6
C6
ENDCHAR
STARTCHAR 0203
ENCODING 515
SWIDTH 720 0
DWIDTH 6 0
BBX 6 9 0 0
BITMAP
30
48
00
70
98
78
D8
D8
6C
ENDCHAR
STARTCHAR 0204
ENCODING 516
SWIDTH 720 0
DWIDTH 6 0
BBX 5 11 0 0
BITMAP
A0
50
00
F8
C0
C0
F8
C0
C0
C0
F8
ENDCHAR
STARTCHAR 0205
ENCODING 517
SWIDTH 720 0
DWIDTH 6 0
BBX 5 9 0 0
BITMAP
A0
50
00
70
D8
F8
C0
D8
70
ENDCHAR
STARTCHAR 0206
ENCODING 518
SWIDTH 720 0
DWIDTH 6 0
BBX 5 11 0 0
BITMAP
60
90
00
F8
C0
C0
F8
C0
C0
C0
F8
ENDCHAR
STARTCHAR 0207
ENCODING 519
SWIDTH 720 0
DWIDTH 6 0
BBX 5 9 0 0
BITMAP
30
48
00
70
D8
F8
C0
D8
70
ENDCHAR
STARTCHAR 0208
ENCODING 520
SWIDTH 360 0
DWIDTH 3 0
BBX 4 11 -1 0
BITMAP
A0
50
00
60
60
60
60
60
60
60
60
ENDCHAR
STARTCHAR 0209
ENCODING 521
SWIDTH 360 0
DWIDTH 3 0
BBX 4 9 -1 0
BITMAP
A0
50
00
60
60
60
60
60
60
ENDCHAR
STARTCHAR 020A
ENCODING 522
SWIDTH 360 0
DWIDTH 3 0
BBX 4 11 -1 0
BITMAP
60
90
00
60
60
60
60
60
60
60
60
ENDCHAR
STARTCHAR 020B
ENCODING 523
SWIDTH 360 0
DWIDTH 3 0
BBX 4 9 -1 0
BITMAP
60
90
00
60
60
60
60
60
60
ENDCHAR
STARTCHAR 020C
ENCODING 524
SWIDTH 960 0
DWIDTH 8 0
BBX 7 11 0 0
BITMAP
50
28
00
38
6C
C6
C6
C6
C6
6C
38
ENDCHAR
STARTCHAR 020D
ENCODING 525
SWIDTH 720 0
DWIDTH 6 0
BBX 5 9 0 0
BITMAP
A0
50
00
70
D8
D8
D8
D8
70
ENDCHAR
STARTCHAR 020E
ENCODING 526
SWIDTH 960 0
DWIDTH 8 0
BBX 7 11 0 0
BITMAP
18
24
00
38
6C
C6
C6
C6
C6
6C
38
ENDCHAR
STARTCHAR 020F
ENCODING 527
SWIDTH 720 0
DWIDTH 6 0
BBX 5 9 0 0
BITMAP
30
48
00
70
D8
D8
D8
D8
70
ENDCHAR
STARTCHAR 0210
ENCODING 528
SWIDTH 840 0
DWIDTH 7 0
BBX 6 11 0 0
BITMAP
50
28
00
F8
CC
CC
CC
F8
CC
CC
CC
ENDCHAR
STARTCHAR 0211
ENCODING 529
SWIDTH 480 0
DWIDTH 4 0
BBX 4 9 0 0
BITMAP
A0
50
00
B0
E0
C0
C0
C0
C0
ENDCHAR
STARTCHAR 0212
ENCODING 530
SWIDTH 840 0
DWIDTH 7 0
BBX 6 11 0 0
BITMAP
30
48
00
F8
CC
CC
CC
F8
CC
CC
CC
ENDCHAR
STARTCHAR 0213
ENCODING 531
SWIDTH 480 0
DWIDTH 4 0
BBX 4 9 0 0
BITMAP
60
90
00
B0
E0
C0
C0
C0
C0
ENDCHAR
STARTCHAR 0214
ENCODING 532
SWIDTH 840 0
DWIDTH 7 0
BBX 6 11 0 0
BITMAP
50
28
00
CC
CC
CC
CC
CC
CC
CC
78
ENDCHAR
STARTCHAR 0215
ENCODING 533
SWIDTH 720 0
DWIDTH 6 0
BBX 5 9 0 0
BITMAP
A0
50
00
D8
D8
D8
D8
D8
68
ENDCHAR
STARTCHAR 0216
ENCODING 534
SWIDTH 840 0
DWIDTH 7 0
BBX 6 11 0 0
BITMAP
30
48
00
CC
CC
CC
CC
CC
CC
CC
78
ENDCHAR
STARTCHAR 0217
ENCODING 535
SWIDTH 720 0
DWIDTH 6 0
BBX 5 9 0 0
BITMAP
30
48
00
D8
D8
D8
D8
D8
68
ENDCHAR
STARTCHAR 0218
ENCODING 536
SWIDTH 840 0
DWIDTH 7 0
BBX 6 13 0 -5
BITMAP
78
CC
E0
78
1C
8C
CC
78
00
30
30
10
20
ENDCHAR
STARTCHAR 0219
ENCODING 537
SWIDTH 720 0
DWIDTH 6 0
BBX 5 11 0 -5
BITMAP
70
D8
70
18
D8
70
00
30
30
10
20
ENDCHAR
STARTCHAR 021A
ENCODING 538
SWIDTH 840 0
DWIDTH 7 0
BBX 6 13 0 -5
BITMAP
FC
30
30
30
30
30
30
30
00
30
30
10
20
ENDCHAR
STARTCHAR 021B
ENCODING 539
SWIDTH 480 0
DWIDTH 4 0
BBX 4 13 -1 -5
BITMAP
60
60
F0
60
60
60
60
30
00
60
60
20
40
ENDCHAR
STARTCHAR 021E
ENCODING 542
SWIDTH 840 0
DWIDTH 7 0
BBX 6 11 0 0
BITMAP
28
10
00
CC
CC
CC
FC
CC
CC
CC
CC
ENDCHAR
STARTCHAR 021F
ENCODING 543
SWIDTH 720 0
DWIDTH 6 0
BBX 5 11 0 0
BITMAP
A0
40
00
C0
C0
F0
D8
D8
D8
D8
D8
ENDCHAR
STARTCHAR 0226
ENCODING 550
SWIDTH 960 0
DWIDTH 8 0
BBX 7 10 0 0
BITMAP
10
00
38
38
6C
6C
6C
FE
C6
C6
ENDCHAR
STARTCHAR 0227
ENCODING 551
SWIDTH 720 0
DWIDTH 6 0
BBX 6 8 0 0
BITMAP
20
00
70
98
78
D8
D8
6C
ENDCHAR
STARTCHAR 0228
ENCODING 552
SWIDTH 720 0
DWIDTH 6 0
BBX 5 10 0 -2
BITMAP
F8
C0
C0
F8
C0
C0
C0
F8
20
60
ENDCHAR
STARTCHAR 0229
ENCODING 553
SWIDTH 720 0
DWIDTH 6 0
BBX 5 8 0 -2
BITMAP
70
D8
F8
C0
D8
70
20
60
ENDCHAR
STARTCHAR 022A
ENCODING 554
SWIDTH 960 0
DWIDTH 8 0
BBX 7 12 0 0
BITMAP
38
00
28
00
38
6C
C6
C6
C6
C6
6C
38
ENDCHAR
STARTCHAR 022B
ENCODING 555
SWIDTH 720 0
DWIDTH 6 0
BBX 5 10 0 0
BITMAP
70
00
50
00
70
D8
D8
D8
D8
70
ENDCHAR
STARTCHAR 022C
ENCODING 556
SWIDTH 960 0
DWIDTH 8 0
BBX 7 14 0 0
BITMAP
38
38
00
14
28
00
38
6C
C6
C6
C6
C6
6C
38
ENDCHAR
STARTCHAR 022D
ENCODING 557
SWIDTH 720 0
DWIDTH 6 0
BBX 5 11 0 0
BITMAP
70
00
50
A0
00
70
D8
D8
D8
D8
70
ENDCHAR
STARTCHAR 022E
ENCODING 558
SWIDTH 960 0
DWIDTH 8 0
BBX 7 10 0 0
BITMAP
10
00
38
6C
C6
C6
C6
C6
6C
38
ENDCHAR
STARTCHAR 022F
ENCODING 559
SWIDTH 720 0
DWIDTH 6 0
BBX 5 8 0 0
BITMAP
20
00
70
D8
D8
D8
D8
70
ENDCHAR
STARTCHAR 0230
ENCODING 560
SWIDTH 960 0
DWIDTH 8 0
BBX 7 12 0 0
BITMAP
38
00
10
00
38
6C
C6
C6
C6
C6
6C
38
ENDCHAR
STARTCHAR 0231
ENCODING 561
SWIDTH 720 0
DWIDTH 6 0
BBX 5 10 0 0
BITMAP
70
00
20
00
70
D8
D8
D8
D8
70
ENDCHAR
STARTCHAR 0232
ENCODING 562
SWIDTH 1080 0
DWIDTH 9 0
BBX 8 10 0 0
BITMAP
1C
00
C3
C3
66
66
3C
18
18
18
ENDCHAR
STARTCHAR 0233
ENCODING 563
SWIDTH 720 0
DWIDTH 6 0
BBX 5 10 0 -2
BITMAP
70
00
D8
D8
D8
D8
78
30
30
60
ENDCHAR
STARTCHAR 0250
ENCODING 592
SWIDTH 720 0
DWIDTH 6 0
BBX 6 6 0 0
BITMAP
D8
6C
6C
78
64
38
ENDCHAR
STARTCHAR 0254
ENCODING 596
SWIDTH 600 0
DWIDTH 5 0
BBX 4 6 0 0
BITMAP
E0
B0
30
30
B0
E0
ENDCHAR
STARTCHAR 0258
ENCODING 600
SWIDTH 720 0
DWIDTH 6 0
BBX 5 6 0 0
BITMAP
70
D8
F8
18
D8
70
ENDCHAR
STARTCHAR 0259
ENCODING 601
SWIDTH 720 0
DWIDTH 6 0
BBX 5 6 0 0
BITMAP
70
D8
18
F8
D8
70
ENDCHAR
STARTCHAR 025F
ENCODING 607
SWIDTH 480 0
DWIDTH 4 0
BBX 5 8 -1 -2
BITMAP
30
30
30
30
30
78
30
E0
ENDCHAR
STARTCHAR 0265
ENCODING 613
SWIDTH 720 0
DWIDTH 6 0
BBX 5 8 0 -2
BITMAP
D8
D8
D8
D8
D8
78
18
18
ENDCHAR
STARTCHAR 0275
ENCODING 629
SWIDTH 720 0
DWIDTH 6 0
BBX 5 6 0 0
BITMAP
70
D8
F8
D8
D8
70
ENDCHAR
STARTCHAR 0279
ENCODING 633
SWIDTH 480 0
DWIDTH 4 0
BBX 4 6 0 0
BITMAP
30
30
30
30
70
D0
ENDCHAR
STARTCHAR 0287
ENCODING 647
SWIDTH 480 0
DWIDTH 4 0
BBX 4 8 -1 0
BITMAP
C0
60
60
60
60
F0
60
60
ENDCHAR
STARTCHAR 0288
ENCODING 648
SWIDTH 480 0
DWIDTH 4 0
BBX 4 10 -1 -2
BITMAP
60
60
F0
60
60
60
60
60
60
30
ENDCHAR
STARTCHAR 0289
ENCODING 649
SWIDTH 720 0
DWIDTH 6 0
BBX 5 6 0 0
BITMAP
D8
D8
F8
D8
D8
68
ENDCHAR
STARTCHAR 028C
ENCODING 652
SWIDTH 720 0
DWIDTH 6 0
BBX 5 6 0 0
BITMAP
20
70
50
D8
D8
D8
ENDCHAR
STARTCHAR 028D
ENCODING 653
SWIDTH 960 0
DWIDTH 8 0
BBX 7 6 0 0
BITMAP
6C
6C
6C
D6
D6
D6
ENDCHAR
STARTCHAR 028E
ENCODING 654
SWIDTH 720 0
DWIDTH 6 0
BBX 5 8 0 0
BITMAP
30
60
60
F0
D8
D8
D8
D8
ENDCHAR
STARTCHAR 029E
ENCODING 670
SWIDTH 720 0
DWIDTH 6 0
BBX 6 8 0 -2
BITMAP
CC
6C
3C
1C
3C
6C
0C
0C
ENDCHAR
STARTCHAR 02BB
ENCODING 699
SWIDTH 360 0
DWIDTH 3 0
BBX 2 4 0 4
BITMAP
40
80
C0
C0
ENDCHAR
STARTCHAR 02BC
ENCODING 700
SWIDTH 360 0
DWIDTH 3 0
BBX 2 4 0 4
BITMAP
C0
C0
40
80
ENDCHAR
STARTCHAR 02BD
ENCODING 701
SWIDTH 360 0
DWIDTH 3 0
BBX 2 4 0 4
BITMAP
C0
C0
80
40
ENDCHAR
STARTCHAR 02C6
ENCODING 710
SWIDTH 480 0
DWIDTH 4 0
BBX 3 2 0 7
BITMAP
40
A0
ENDCHAR
STARTCHAR 02C7
ENCODING 711
SWIDTH 480 0
DWIDTH 4 0
BBX 3 2 0 7
BITMAP
A0
40
ENDCHAR
STARTCHAR 02C8
ENCODING 712
SWIDTH 360 0
DWIDTH 3 0
BBX 1 3 1 5
BITMAP
80
80
80
ENDCHAR
STARTCHAR 02C9
ENCODING 713
SWIDTH 360 0
DWIDTH 3 0
BBX 3 1 0 7
BITMAP
E0
ENDCHAR
STARTCHAR 02CA
ENCODING 714
SWIDTH 360 0
DWIDTH 3 0
BBX 2 2 0 7
BITMAP
40
80
ENDCHAR
STARTCHAR 02CB
ENCODING 715
SWIDTH 360 0
DWIDTH 3 0
BBX 2 2 0 7
BITMAP
80
40
ENDCHAR
STARTCHAR 02CD
ENCODING 717
SWIDTH 360 0
DWIDTH 3 0
BBX 3 1 0 -2
BITMAP
E0
ENDCHAR
STARTCHAR 02CE
ENCODING 718
SWIDTH 360 0
DWIDTH 3 0
BBX 2 2 0 -3
BITMAP
80
40
ENDCHAR
STARTCHAR 02CF
ENCODING 719
SWIDTH 360 0
DWIDTH 3 0
BBX 2 2 0 -3
BITMAP
40
80
ENDCHAR
STARTCHAR 02D8
ENCODING 728
SWIDTH 480 0
DWIDTH 4 0
BBX 4 2 0 7
BITMAP
90
60
ENDCHAR
STARTCHAR 02D9
ENCODING 729
SWIDTH 240 0
DWIDTH 2 0
BBX 1 1 0 7
BITMAP
80
ENDCHAR
STARTCHAR 02DA
ENCODING 730
SWIDTH 480 0
DWIDTH 4 0
BBX 3 3 0 6
BITMAP
40
A0
40
ENDCHAR
STARTCHAR 02DB
ENCODING 731
SWIDTH 360 0
DWIDTH 3 0
BBX 2 2 0 -2
BITMAP
80
C0
ENDCHAR
STARTCHAR 02DC
ENCODING 732
SWIDTH 480 0
DWIDTH 4 0
BBX 4 2 0 7
BITMAP
50
A0
ENDCHAR
STARTCHAR 02DD
ENCODING 733
SWIDTH 600 0
DWIDTH 5 0
BBX 4 2 0 7
BITMAP
50
A0
ENDCHAR
STARTCHAR 02EE
ENCODING 750
SWIDTH 720 0
DWIDTH 6 0
BBX 5 3 0 5
BITMAP
D8
48
90
ENDCHAR
STARTCHAR 037E
ENCODING 894
SWIDTH 360 0
DWIDTH 3 0
BBX 2 8 0 -2
BITMAP
C0
C0
00
00
C0
C0
40
80
ENDCHAR
STARTCHAR 0384
ENCODING 900
SWIDTH 360 0
DWIDTH 3 0
BBX 2 2 0 7
BITMAP
40
80
ENDCHAR
STARTCHAR 0385
ENCODING 901
SWIDTH 360 0
DWIDTH 3 0
BBX 3 4 0 7
BITMAP
20
40
00
A0
ENDCHAR
STARTCHAR 0387
ENCODING 903
SWIDTH 360 0
DWIDTH 3 0
BBX 2 1 0 3
BITMAP
C0
ENDCHAR
STARTCHAR 03BC
ENCODING 956
SWIDTH 720 0
DWIDTH 6 0
BBX 5 8 0 -2
BITMAP
D8
D8
D8
D8
D8
E8
C0
C0
ENDCHAR
STARTCHAR 1E00
ENCODING 7680
SWIDTH 960 0
DWIDTH 8 0
BBX 7 12 0 -4
BITMAP
38
38
6C
6C
6C
FE
C6
C6
00
10
28
10
ENDCHAR
STARTCHAR 1E01
ENCODING 7681
SWIDTH 720 0
DWIDTH 6 0
BBX 6 10 0 -4
BITMAP
70
98
78
D8
D8
6C
00
10
28
10
ENDCHAR
STARTCHAR 1E02
ENCODING 7682
SWIDTH 840 0
DWIDTH 7 0
BBX 6 10 0 0
BITMAP
20
00
F8
CC
CC
F8
CC
CC
CC
F8
ENDCHAR
STARTCHAR 1E03
ENCODING 7683
SWIDTH 720 0
DWIDTH 6 0
BBX 5 10 0 0
BITMAP
40
00
C0
C0
F0
D8
D8
D8
D8
F0
ENDCHAR
STARTCHAR 1E04
ENCODING 7684
SWIDTH 840 0
DWIDTH 7 0
BBX 6 10 0 -2
BITMAP
F8
CC
CC
F8
CC
CC
CC
F8
00
20
ENDCHAR
STARTCHAR 1E05
ENCODING 7685
SWIDTH 720 0
DWIDTH 6 0
BBX 5 10 0 -2
BITMAP
C0
C0
F0
D8
D8
D8
D8
F0
00
20
ENDCHAR
STARTCHAR 1E06
ENCODING 7686
SWIDTH 840 0
DWIDTH 7 0
BBX 6 10 0 -2
BITMAP
F8
CC
CC
F8
CC
CC
CC
F8
00
70
ENDCHAR
STARTCHAR 1E07
ENCODING 7687
SWIDTH 720 0
DWIDTH 6 0
BBX 5 10 0 -2
BITMAP
C0
C0
F0
D8
D8
D8
D8
F0
00
70
ENDCHAR
STARTCHAR 1E08
ENCODING 7688
SWIDTH 960 0
DWIDTH 8 0
BBX 7 13 0 -2
BITMAP
08
10
00
3C
66
C2
C0
C0
C2
66
3C
10
30
ENDCHAR
STARTCHAR 1E09
ENCODING 7689
SWIDTH 600 0
DWIDTH 5 0
BBX 4 11 0 -2
BITMAP
20
40
00
70
D0
C0
C0
D0
70
20
60
ENDCHAR
STARTCHAR 1E0A
ENCODING 7690
SWIDTH 840 0
DWIDTH 7 0
BBX 6 10 0 0
BITMAP
20
00
F0
D8
CC
CC
CC
CC
D8
F0
ENDCHAR
STARTCHAR 1E0B
ENCODING 7691
SWIDTH 720 0
DWIDTH 6 0
BBX 5 10 0 0
BITMAP
10
00
18
18
78
D8
D8
D8
D8
78
ENDCHAR
STARTCHAR 1E0C
ENCODING 7692
SWIDTH 840 0
DWIDTH 7 0
BBX 6 10 0 -2
BITMAP
F0
D8
CC
CC
CC
CC
D8
F0
00
20
ENDCHAR
STARTCHAR 1E0D
ENCODING 7693
SWIDTH 720 0
DWIDTH 6 0
BBX 5 10 0 -2
BITMAP
18
18
78
D8
D8
D8
D8
78
00
20
ENDCHAR
STARTCHAR 1E0E
ENCODING 7694
SWIDTH 840 0
DWIDTH 7 0
BBX 6 10 0 -2
BITMAP
F0
D8
CC
CC
CC
CC
D8
F0
00
70
ENDCHAR
STARTCHAR 1E0F
ENCODING 7695
SWIDTH 720 0
DWIDTH 6 0
BBX 5 10 0 -2
BITMAP
18
18
78
D8
D8
D8
D8
78
00
70
ENDCHAR
STARTCHAR 1E10
ENCODING 7696
SWIDTH 840 0
DWIDTH 7 0
BBX 6 10 0 -2
BITMAP
F0
D8
CC
CC
CC
CC
D8
F0
20
60
ENDCHAR
STARTCHAR 1E11
ENCODING 7697
SWIDTH 720 0
DWIDTH 6 0
BBX 5 10 0 -2
BITMAP
18
18
78
D8
D8
D8
D8
78
20
60
ENDCHAR
STARTCHAR 1E12
ENCODING 7698
SWIDTH 840 0
DWIDTH 7 0
BBX 6 11 0 -3
BITMAP
F0
D8
CC
CC
CC
CC
D8
F0
00
20
50
ENDCHAR
STARTCHAR 1E13
ENCODING 7699
SWIDTH 720 0
DWIDTH 6 0
BBX 5 11 0 -3
BITMAP
18
18
78
D8
D8
D8
D8
78
00
20
50
ENDCHAR
STARTCHAR 1E14
ENCODING 7700
SWIDTH 720 0
DWIDTH 6 0
BBX 5 14 0 0
BITMAP
40
40
20
00
70
00
F8
C0
C0
F8
C0
C0
C0
F8
ENDCHAR
STARTCHAR 1E15
ENCODING 7701
SWIDTH 720 0
DWIDTH 6 0
BBX 5 11 0 0
BITMAP
40
20
00
70
00
70
D8
F8
C0
D8
70
ENDCHAR
STARTCHAR 1E16
ENCODING 7702
SWIDTH 720 0
DWIDTH 6 0
BBX 5 14 0 0
BITMAP
10
10
20
00
70
00
F8
C0
C0
F8
C0
C0
C0
F8
ENDCHAR
STARTCHAR 1E17
ENCODING 7703
SWIDTH 720 0
DWIDTH 6 0
BBX 5 11 0 0
BITMAP
10
20
00
70
00
70
D8
F8
C0
D8
70
ENDCHAR
STARTCHAR 1E18
ENCODING 7704
SWIDTH 720 0
DWIDTH 6 0
BBX 5 11 0 -3
BITMAP
F8
C0
C0
F8
C0
C0
C0
F8
00
20
50
ENDCHAR
STARTCHAR 1E19
ENCODING 7705
SWIDTH 720 0
DWIDTH 6 0
BBX 5 9 0 -3
BITMAP
70
D8
F8
C0
D8
70
00
20
50
ENDCHAR
STARTCHAR 1E1A
ENCODING 7706
SWIDTH 720 0
DWIDTH 6 0
BBX 5 11 0 -3
BITMAP
F8
C0
C0
F8
C0
C0
C0
F8
00
50
A0
ENDCHAR
STARTCHAR 1E1B
ENCODING 7707
SWIDTH 720 0
DWIDTH 6 0
BBX 5 9 0 -3
BITMAP
70
D8
F8
C0
D8
70
00
50
A0
ENDCHAR
STARTCHAR 1E1C
ENCODING 7708
SWIDTH 720 0
DWIDTH 6 0
BBX 5 13 0 -2
BITMAP
90
60
00
F8
C0
C0
F8
C0
C0
C0
F8
20
60
ENDCHAR
STARTCHAR 1E1D
ENCODING 7709
SWIDTH 720 0
DWIDTH 6 0
BBX 5 11 0 -2
BITMAP
48
30
00
70
D8
F8
C0
D8
70
20
60
ENDCHAR
STARTCHAR 1E1E
ENCODING 7710
SWIDTH 720 0
DWIDTH 6 0
BBX 5 10 0 0
BITMAP
20
00
F8
C0
C0
F0
C0
C0
C0
C0
ENDCHAR
STARTCHAR 1E1F
ENCODING 7711
SWIDTH 480 0
DWIDTH 4 0
BBX 5 10 -1 0
BITMAP
20
00
38
60
F0
60
60
60
60
60
ENDCHAR
STARTCHAR 1E20
ENCODING 7712
SWIDTH 960 0
DWIDTH 8 0
BBX 7 10 0 0
BITMAP
38
00
3C
66
C2
C0
CE
C6
66
3A
ENDCHAR
STARTCHAR 1E21
ENCODING 7713
SWIDTH 720 0
DWIDTH 6 0
BBX 5 10 0 -2
BITMAP
70
00
68
D8
D8
D8
D8
78
18
70
ENDCHAR
STARTCHAR 1E22
ENCODING 7714
SWIDTH 840 0
DWIDTH 7 0
BBX 6 10 0 0
BITMAP
10
00
CC
CC
CC
FC
CC
CC
CC
CC
ENDCHAR
STARTCHAR 1E23
ENCODING 7715
SWIDTH 720 0
DWIDTH 6 0
BBX 5 10 0 0
BITMAP
40
00
C0
C0
F0
D8
D8
D8
D8
D8
ENDCHAR
STARTCHAR 1E24
ENCODING 7716
SWIDTH 840 0
DWIDTH 7 0
BBX 6 10 0 -2
BITMAP
CC
CC
CC
FC
CC
CC
CC
CC
00
10
ENDCHAR
STARTCHAR 1E25
ENCODING 7717
SWIDTH 720 0
DWIDTH 6 0
BBX 5 10 0 -2
BITMAP
C0
C0
F0
D8
D8
D8
D8
D8
00
20
ENDCHAR
STARTCHAR 1E26
ENCODING 7718
SWIDTH 840 0
DWIDTH 7 0
BBX 6 10 0 0
BITMAP
28
00
CC
CC
CC
FC
CC
CC
CC
CC
ENDCHAR
STARTCHAR 1E27
ENCODING 7719
SWIDTH 720 0
DWIDTH 6 0
BBX 5 10 0 0
BITMAP
A0
00
C0
C0
F0
D8
D8
D8
D8
D8
ENDCHAR
STARTCHAR 1E28
ENCODING 7720
SWIDTH 840 0
DWIDTH 7 0
BBX 6 10 0 -2
BITMAP
CC
CC
CC
FC
CC
CC
CC
CC
10
30
ENDCHAR
STARTCHAR 1E29
ENCODING 7721
SWIDTH 720 0
DWIDTH 6 0
BBX 5 10 0 -2
BITMAP
C0
C0
F0
D8
D8
D8
D8
D8
20
60
ENDCHAR
STARTCHAR 1E2A
ENCODING 7722
SWIDTH 840 0
DWIDTH 7 0
BBX 6 11 0 -3
BITMAP
CC
CC
CC
FC
CC
CC
CC
CC
00
48
30
ENDCHAR
STARTCHAR 1E2B
ENCODING 7723
SWIDTH 720 0
DWIDTH 6 0
BBX 5 11 0 -3
BITMAP
C0
C0
F0
D8
D8
D8
D8
D8
00
48
30
ENDCHAR
STARTCHAR 1E2C
ENCODING 7724
SWIDTH 360 0
DWIDTH 3 0
BBX 4 11 -1 -3
BITMAP
60
60
60
60
60
60
60
60
00
50
A0
ENDCHAR
STARTCHAR 1E2D
ENCODING 7725
SWIDTH 360 0
DWIDTH 3 0
BBX 4 11 -1 -3
BITMAP
60
00
60
60
60
60
60
60
00
50
A0
ENDCHAR
STARTCHAR 1E2E
ENCODING 7726
SWIDTH 360 0
DWIDTH 3 0
BBX 4 14 -1 0
BITMAP
20
20
40
00
90
00
60
60
60
60
60
60
60
60
ENDCHAR
STARTCHAR 1E2F
ENCODING 7727
SWIDTH 360 0
DWIDTH 3 0
BBX 3 11 0 0
BITMAP
20
40
00
A0
00
C0
C0
C0
C0
C0
C0
ENDCHAR
STARTCHAR 1E30
ENCODING 7728
SWIDTH 840 0
DWIDTH 7 0
BBX 7 11 0 0
BITMAP
10
20
00
CC
D8
F0
E0
F0
D8
CC
C6
ENDCHAR
STARTCHAR 1E31
ENCODING 7729
SWIDTH 720 0
DWIDTH 6 0
BBX 6 11 0 0
BITMAP
10
20
00
C0
C0
D8
F0
E0
F0
D8
CC
ENDCHAR
STARTCHAR 1E32
ENCODING 7730
SWIDTH 840 0
DWIDTH 7 0
BBX 7 10 0 -2
BITMAP
CC
D8
F0
E0
F0
D8
CC
C6
00
10
ENDCHAR
STARTCHAR 1E33
ENCODING 7731
SWIDTH 720 0
DWIDTH 6 0
BBX 6 10 0 -2
BITMAP
C0
C0
D8
F0
E0
F0
D8
CC
00
20
ENDCHAR
STARTCHAR 1E34
ENCODING 7732
SWIDTH 840 0
DWIDTH 7 0
BBX 7 10 0 -2
BITMAP
CC
D8
F0
E0
F0
D8
CC
C6
00
38
ENDCHAR
STARTCHAR 1E35
ENCODING 7733
SWIDTH 720 0
DWIDTH 6 0
BBX 6 10 0 -2
BITMAP
C0
C0
D8
F0
E0
F0
D8
CC
00
70
ENDCHAR
STARTCHAR 1E36
ENCODING 7734
SWIDTH 720 0
DWIDTH 6 0
BBX 5 10 0 -2
BITMAP
C0
C0
C0
C0
C0
C0
C0
F8
00
20
ENDCHAR
STARTCHAR 1E37
ENCODING 7735
SWIDTH 360 0
DWIDTH 3 0
BBX 2 10 0 -2
BITMAP
C0
C0
C0
C0
C0
C0
C0
C0
00
40
ENDCHAR
STARTCHAR 1E38
ENCODING 7736
SWIDTH 720 0
DWIDTH 6 0
BBX 5 12 0 -2
BITMAP
E0
00
C0
C0
C0
C0
C0
C0
C0
F8
00
20
ENDCHAR
STARTCHAR 1E39
ENCODING 7737
SWIDTH 360 0
DWIDTH 3 0
BBX 3 12 0 -2
BITMAP
E0
00
C0
C0
C0
C0
C0
C0
C0
C0
00
40
ENDCHAR
STARTCHAR 1E3A
ENCODING 7738
SWIDTH 720 0
DWIDTH 6 0
BBX 5 10 0 -2
BITMAP
C0
C0
C0
C0
C0
C0
C0
F8
00
70
ENDCHAR
STARTCHAR 1E3B
ENCODING 7739
SWIDTH 360 0
DWIDTH 3 0
BBX 3 10 0 -2
BITMAP
C0
C0
C0
C0
C0
C0
C0
C0
00
E0
ENDCHAR
STARTCHAR 1E3C
ENCODING 7740
SWIDTH 720 0
DWIDTH 6 0
BBX 5 11 0 -3
BITMAP
C0
C0
C0
C0
C0
C0
C0
F8
00
20
50
ENDCHAR
STARTCHAR 1E3D
ENCODING 7741
SWIDTH 360 0
DWIDTH 3 0
BBX 3 11 0 -3
BITMAP
C0
C0
C0
C0
C0
C0
C0
C0
00
40
A0
ENDCHAR
STARTCHAR 1E3E
ENCODING 7742
SWIDTH 1200 0
DWIDTH 10 0
BBX 9 11 0 0
BITMAP
0400
0800
0000
C180
E380
E380
F780
D580
DD80
C980
C980
ENDCHAR
STARTCHAR 1E3F
ENCODING 7743
SWIDTH 1080 0
DWIDTH 9 0
BBX 8 9 0 0
BITMAP
08
10
00
B6
DB
DB
DB
DB
DB
ENDCHAR
STARTCHAR 1E40
ENCODING 7744
SWIDTH 1200 0
DWIDTH 10 0
BBX 9 10 0 0
BITMAP
0800
0000
C180
E380
E380
F780
D580
DD80
C980
C980
ENDCHAR
STARTCHAR 1E41
ENCODING 7745
SWIDTH 1080 0
DWIDTH 9 0
BBX 8 8 0 0
BITMAP
10
00
B6
DB
DB
DB
DB
DB
ENDCHAR
STARTCHAR 1E42
ENCODING 7746
SWIDTH 1200 0
DWIDTH 10 0
BBX 9 10 0 -2
BITMAP
C180
E380
E380
F780
D580
DD80
C980
C980
0000
0800
ENDCHAR
STARTCHAR 1E43
ENCODING 7747
SWIDTH 1080 0
DWIDTH 9 0
BBX 8 8 0 -2
BITMAP
B6
DB
DB
DB
DB
DB
00
08
ENDCHAR
STARTCHAR 1E44
ENCODING 7748
SWIDTH 960 0
DWIDTH 8 0
BBX 7 10 0 0
BITMAP
10
00
C6
E6
E6
D6
D6
CE
CE
C6
ENDCHAR
STARTCHAR 1E45
ENCODING 7749
SWIDTH 720 0
DWIDTH 6 0
BBX 5 8 0 0
BITMAP
20
00
B0
D8
D8
D8
D8
D8
ENDCHAR
STARTCHAR 1E46
ENCODING 7750
SWIDTH 960 0
DWIDTH 8 0
BBX 7 10 0 -2
BITMAP
C6
E6
E6
D6
D6
CE
CE
C6
00
10
ENDCHAR
STARTCHAR 1E47
ENCODING 7751
SWIDTH 720 0
DWIDTH 6 0
BBX 5 8 0 -2
BITMAP
B0
D8
D8
D8
D8
D8
00
20
ENDCHAR
STARTCHAR 1E48
ENCODING 7752
SWIDTH 960 0
DWIDTH 8 0
BBX 7 10 0 -2
BITMAP
C6
E6
E6
D6
D6
CE
CE
C6
00
38
ENDCHAR
STARTCHAR 1E49
ENCODING 7753
SWIDTH 720 0
DWIDTH 6 0
BBX 5 8 0 -2
BITMAP
B0
D8
D8
D8
D8
D8
00
70
ENDCHAR
STARTCHAR 1E4A
ENCODING 7754
SWIDTH 960 0
DWIDTH 8 0
BBX 7 11 0 -3
BITMAP
C6
E6
E6
D6
D6
CE
CE
C6
00
10
28
ENDCHAR
STARTCHAR 1E4B
ENCODING 7755
SWIDTH 720 0
DWIDTH 6 0
BBX 5 9 0 -3
BITMAP
B0
D8
D8
D8
D8
D8
00
20
50
ENDCHAR
STARTCHAR 1E4C
ENCODING 7756
SWIDTH 960 0
DWIDTH 8 0
BBX 7 15 0 0
BITMAP
08
10
10
00
14
28
00
38
6C
C6
C6
C6
C6
6C
38
ENDCHAR
STARTCHAR 1E4D
ENCODING 7757
SWIDTH 720 0
DWIDTH 6 0
BBX 5 12 0 0
BITMAP
10
20
00
50
A0
00
70
D8
D8
D8
D8
70
ENDCHAR
STARTCHAR 1E4E
ENCODING 7758
SWIDTH 960 0
DWIDTH 8 0
BBX 7 14 0 0
BITMAP
28
28
00
14
28
00
38
6C
C6
C6
C6
C6
6C
38
ENDCHAR
STARTCHAR 1E4F
ENCODING 7759
SWIDTH 720 0
DWIDTH 6 0
BBX 5 11 0 0
BITMAP
50
00
50
A0
00
70
D8
D8
D8
D8
70
ENDCHAR
STARTCHAR 1E50
ENCODING 7760
SWIDTH 960 0
DWIDTH 8 0
BBX 7 14 0 0
BITMAP
20
20
10
00
38
00
38
6C
C6
C6
C6
C6
6C
38
ENDCHAR
STARTCHAR 1E51
ENCODING 7761
SWIDTH 720 0
DWIDTH 6 0
BBX 5 11 0 0
BITMAP
40
20
00
70
00
70
D8
D8
D8
D8
70
ENDCHAR
STARTCHAR 1E52
ENCODING 7762
SWIDTH 960 0
DWIDTH 8 0
BBX 7 14 0 0
BITMAP
08
08
10
00
38
00
38
6C
C6
C6
C6
C6
6C
38
ENDCHAR
STARTCHAR 1E53
ENCODING 7763
SWIDTH 720 0
DWIDTH 6 0
BBX 5 11 0 0
BITMAP
10
20
00
70
00
70
D8
D8
D8
D8
70
ENDCHAR
STARTCHAR 1E54
ENCODING 7764
SWIDTH 840 0
DWIDTH 7 0
BBX 6 11 0 0
BITMAP
10
20
00
F8
CC
CC
CC
F8
C0
C0
C0
ENDCHAR
STARTCHAR 1E55
ENCODING 7765
SWIDTH 720 0
DWIDTH 6 0
BBX 5 11 0 -2
BITMAP
10
20
00
B0
D8
D8
D8
D8
F0
C0
C0
ENDCHAR
STARTCHAR 1E56
ENCODING 7766
SWIDTH 840 0
DWIDTH 7 0
BBX 6 10 0 0
BITMAP
20
00
F8
CC
CC
CC
F8
C0
C0
C0
ENDCHAR
STARTCHAR 1E57
ENCODING 7767
SWIDTH 720 0
DWIDTH 6 0
BBX 5 10 0 -2
BITMAP
20
00
B0
D8
D8
D8
D8
F0
C0
C0
ENDCHAR
STARTCHAR 1E58
ENCODING 7768
SWIDTH 840 0
DWIDTH 7 0
BBX 6 10 0 0
BITMAP
20
00
F8
CC
CC
CC
F8
CC
CC
CC
ENDCHAR
STARTCHAR 1E59
ENCODING 7769
SWIDTH 480 0
DWIDTH 4 0
BBX 4 8 0 0
BITMAP
40
00
B0
E0
C0
C0
C0
C0
ENDCHAR
STARTCHAR 1E5A
ENCODING 7770
SWIDTH 840 0
DWIDTH 7 0
BBX 6 10 0 -2
BITMAP
F8
CC
CC
CC
F8
CC
CC
CC
00
10
ENDCHAR
STARTCHAR 1E5B
ENCODING 7771
SWIDTH 480 0
DWIDTH 4 0
BBX 4 8 0 -2
BITMAP
B0
E0
C0
C0
C0
C0
00
40
ENDCHAR
STARTCHAR 1E5C
ENCODING 7772
SWIDTH 840 0
DWIDTH 7 0
BBX 6 12 0 -2
BITMAP
70
00
F8
CC
CC
CC
F8
CC
CC
CC
00
10
ENDCHAR
STARTCHAR 1E5D
ENCODING 7773
SWIDTH 480 0
DWIDTH 4 0
BBX 4 10 0 -2
BITMAP
E0
00
B0
E0
C0
C0
C0
C0
00
40
ENDCHAR
STARTCHAR 1E5E
ENCODING 7774
SWIDTH 840 0
DWIDTH 7 0
BBX 6 10 0 -2
BITMAP
F8
CC
CC
CC
F8
CC
CC
CC
00
38
ENDCHAR
STARTCHAR 1E5F
ENCODING 7775
SWIDTH 480 0
DWIDTH 4 0
BBX 4 8 0 -2
BITMAP
B0
E0
C0
C0
C0
C0
00
E0
ENDCHAR
STARTCHAR 1E60
ENCODING 7776
SWIDTH 840 0
DWIDTH 7 0
BBX 6 10 0 0
BITMAP
20
00
78
CC
E0
78
1C
8C
CC
78
ENDCHAR
STARTCHAR 1E61
ENCODING 7777
SWIDTH 720 0
DWIDTH 6 0
BBX 5 8 0 0
BITMAP
20
00
70
D8
70
18
D8
70
ENDCHAR
STARTCHAR 1E62
ENCODING 7778
SWIDTH 840 0
DWIDTH 7 0
BBX 6 10 0 -2
BITMAP
78
CC
E0
78
1C
8C
CC
78
00
10
ENDCHAR
STARTCHAR 1E63
ENCODING 7779
SWIDTH 720 0
DWIDTH 6 0
BBX 5 8 0 -2
BITMAP
70
D8
70
18
D8
70
00
20
ENDCHAR
STARTCHAR 1E64
ENCODING 7780
SWIDTH 840 0
DWIDTH 7 0
BBX 6 14 0 0
BITMAP
10
10
00
10
20
00
78
CC
E0
78
1C
8C
CC
78
ENDCHAR
STARTCHAR 1E65
ENCODING 7781
SWIDTH 720 0
DWIDTH 6 0
BBX 5 11 0 0
BITMAP
20
00
10
20
00
70
D8
70
18
D8
70
ENDCHAR
STARTCHAR 1E66
ENCODING 7782
SWIDTH 840 0
DWIDTH 7 0
BBX 6 14 0 0
BITMAP
10
10
00
28
10
00
78
CC
E0
78
1C
8C
CC
78
ENDCHAR
STARTCHAR 1E67
ENCODING 7783
SWIDTH 720 0
DWIDTH 6 0
BBX 5 11 0 0
BITMAP
20
00
50
20
00
70
D8
70
18
D8
70
ENDCHAR
STARTCHAR 1E68
ENCODING 7784
SWIDTH 840 0
DWIDTH 7 0
BBX 6 12 0 -2
BITMAP
20
00
78
CC
E0
78
1C
8C
CC
78
00
10
ENDCHAR
STARTCHAR 1E69
ENCODING 7785
SWIDTH 720 0
DWIDTH 6 0
BBX 5 10 0 -2
BITMAP
20
00
70
D8
70
18
D8
70
00
20
ENDCHAR
STARTCHAR 1E6A
ENCODING 7786
SWIDTH 840 0
DWIDTH 7 0
BBX 6 10 0 0
BITMAP
10
00
FC
30
30
30
30
30
30
30
ENDCHAR
STARTCHAR 1E6B
ENCODING 7787
SWIDTH 480 0
DWIDTH 4 0
BBX 4 10 -1 0
BITMAP
20
00
60
60
F0
60
60
60
60
30
ENDCHAR
STARTCHAR 1E6C
ENCODING 7788
SWIDTH 840 0
DWIDTH 7 0
BBX 6 10 0 -2
BITMAP
FC
30
30
30
30
30
30
30
00
10
ENDCHAR
STARTCHAR 1E6D
ENCODING 7789
SWIDTH 480 0
DWIDTH 4 0
BBX 4 10 -1 -2
BITMAP
60
60
F0
60
60
60
60
30
00
20
ENDCHAR
STARTCHAR 1E6E
ENCODING 7790
SWIDTH 840 0
DWIDTH 7 0
BBX 6 10 0 -2
BITMAP
FC
30
30
30
30
30
30
30
00
38
ENDCHAR
STARTCHAR 1E6F
ENCODING 7791
SWIDTH 480 0
DWIDTH 4 0
BBX 4 10 -1 -2
BITMAP
60
60
F0
60
60
60
60
30
00
70
ENDCHAR
STARTCHAR 1E70
ENCODING 7792
SWIDTH 840 0
DWIDTH 7 0
BBX 6 11 0 -3
BITMAP
FC
30
30
30
30
30
30
30
00
10
28
ENDCHAR
STARTCHAR 1E71
ENCODING 7793
SWIDTH 480 0
DWIDTH 4 0
BBX 4 11 -1 -3
BITMAP
60
60
F0
60
60
60
60
30
00
20
50
ENDCHAR
STARTCHAR 1E72
ENCODING 7794
SWIDTH 840 0
DWIDTH 7 0
BBX 6 10 0 -2
BITMAP
CC
CC
CC
CC
CC
CC
CC
78
00
28
ENDCHAR
STARTCHAR 1E73
ENCODING 7795
SWIDTH 720 0
DWIDTH 6 0
BBX 5 8 0 -2
BITMAP
D8
D8
D8
D8
D8
68
00
50
ENDCHAR
STARTCHAR 1E74
ENCODING 7796
SWIDTH 840 0
DWIDTH 7 0
BBX 6 11 0 -3
BITMAP
CC
CC
CC
CC
CC
CC
CC
78
00
28
50
ENDCHAR
STARTCHAR 1E75
ENCODING 7797
SWIDTH 720 0
DWIDTH 6 0
BBX 5 9 0 -3
BITMAP
D8
D8
D8
D8
D8
68
00
50
A0
ENDCHAR
STARTCHAR 1E76
ENCODING 7798
SWIDTH 840 0
DWIDTH 7 0
BBX 6 11 0 -3
BITMAP
CC
CC
CC
CC
CC
CC
CC
78
00
10
28
ENDCHAR
STARTCHAR 1E77
ENCODING 7799
SWIDTH 720 0
DWIDTH 6 0
BBX 5 9 0 -3
BITMAP
D8
D8
D8
D8
D8
68
00
20
50
ENDCHAR
STARTCHAR 1E78
ENCODING 7800
SWIDTH 840 0
DWIDTH 7 0
BBX 6 15 0 0
BITMAP
10
20
20
00
28
50
00
CC
CC
CC
CC
CC
CC
CC
78
ENDCHAR
STARTCHAR 1E79
ENCODING 7801
SWIDTH 720 0
DWIDTH 6 0
BBX 5 12 0 0
BITMAP
10
20
00
28
50
00
D8
D8
D8
D8
D8
68
ENDCHAR
STARTCHAR 1E7A
ENCODING 7802
SWIDTH 840 0
DWIDTH 7 0
BBX 6 12 0 0
BITMAP
28
00
38
00
CC
CC
CC
CC
CC
CC
CC
78
ENDCHAR
STARTCHAR 1E7B
ENCODING 7803
SWIDTH 720 0
DWIDTH 6 0
BBX 5 10 0 0
BITMAP
50
00
70
00
D8
D8
D8
D8
D8
68
ENDCHAR
STARTCHAR 1E7C
ENCODING 7804
SWIDTH 960 0
DWIDTH 8 0
BBX 7 11 0 0
BITMAP
14
28
00
C6
C6
6C
6C
6C
38
38
10
ENDCHAR
STARTCHAR 1E7D
ENCODING 7805
SWIDTH 720 0
DWIDTH 6 0
BBX 5 9 0 0
BITMAP
28
50
00
D8
D8
D8
50
70
20
ENDCHAR
STARTCHAR 1E7E
ENCODING 7806
SWIDTH 960 0
DWIDTH 8 0
BBX 7 10 0 -2
BITMAP
C6
C6
6C
6C
6C
38
38
10
00
10
ENDCHAR
STARTCHAR 1E7F
ENCODING 7807
SWIDTH 720 0
DWIDTH 6 0
BBX 5 8 0 -2
BITMAP
D8
D8
D8
50
70
20
00
20
ENDCHAR
STARTCHAR 1E80
ENCODING 7808
SWIDTH 1320 0
DWIDTH 11 0
BBX 10 11 0 0
BITMAP
0800
0400
0000
CCC0
CCC0
CCC0
6D80
6D80
7F80
3300
3300
ENDCHAR
STARTCHAR 1E81
ENCODING 7809
SWIDTH 960 0
DWIDTH 8 0
BBX 7 9 0 0
BITMAP
20
10
00
D6
D6
D6
6C
6C
6C
ENDCHAR
STARTCHAR 1E82
ENCODING 7810
SWIDTH 1320 0
DWIDTH 11 0
BBX 10 11 0 0
BITMAP
0400
0800
0000
CCC0
CCC0
CCC0
6D80
6D80
7F80
3300
3300
ENDCHAR
STARTCHAR 1E83
ENCODING 7811
SWIDTH 960 0
DWIDTH 8 0
BBX 7 9 0 0
BITMAP
08
10
00
D6
D6
D6
6C
6C
6C
ENDCHAR
STARTCHAR 1E84
ENCODING 7812
SWIDTH 1320 0
DWIDTH 11 0
BBX 10 10 0 0
BITMAP
0A00
0000
CCC0
CCC0
CCC0
6D80
6D80
7F80
3300
3300
ENDCHAR
STARTCHAR 1E85
ENCODING 7813
SWIDTH 960 0
DWIDTH 8 0
BBX 7 8 0 0
BITMAP
28
00
D6
D6
D6
6C
6C
6C
ENDCHAR
STARTCHAR 1E86
ENCODING 7814
SWIDTH 1320 0
DWIDTH 11 0
BBX 10 10 0 0
BITMAP
0400
0000
CCC0
CCC0
CCC0
6D80
6D80
7F80
3300
3300
ENDCHAR
STARTCHAR 1E87
ENCODING 7815
SWIDTH 960 0
DWIDTH 8 0
BBX 7 8 0 0
BITMAP
10
00
D6
D6
D6
6C
6C
6C
ENDCHAR
STARTCHAR 1E88
ENCODING 7816
SWIDTH 1320 0
DWIDTH 11 0
BBX 10 10 0 -2
BITMAP
CCC0
CCC0
CCC0
6D80
6D80
7F80
3300
3300
0000
0400
ENDCHAR
STARTCHAR 1E89
ENCODING 7817
SWIDTH 960 0
DWIDTH 8 0
BBX 7 8 0 -2
BITMAP
D6
D6
D6
6C
6C
6C
00
10
ENDCHAR
STARTCHAR 1E8A
ENCODING 7818
SWIDTH 960 0
DWIDTH 8 0
BBX 7 10 0 0
BITMAP
10
00
C6
C6
6C
38
38
6C
C6
C6
ENDCHAR
STARTCHAR 1E8B
ENCODING 7819
SWIDTH 840 0
DWIDTH 7 0
BBX 6 8 0 0
BITMAP
10
00
CC
78
30
78
CC
CC
ENDCHAR
STARTCHAR 1E8C
ENCODING 7820
SWIDTH 960 0
DWIDTH 8 0
BBX 7 10 0 0
BITMAP
28
00
C6
C6
6C
38
38
6C
C6
C6
ENDCHAR
STARTCHAR 1E8D
ENCODING 7821
SWIDTH 840 0
DWIDTH 7 0
BBX 6 8 0 0
BITMAP
28
00
CC
78
30
78
CC
CC
ENDCHAR
STARTCHAR 1E8E
ENCODING 7822
SWIDTH 1080 0
DWIDTH 9 0
BBX 8 10 0 0
BITMAP
08
00
C3
C3
66
66
3C
18
18
18
ENDCHAR
STARTCHAR 1E8F
ENCODING 7823
SWIDTH 720 0
DWIDTH 6 0
BBX 5 10 0 -2
BITMAP
20
00
D8
D8
D8
D8
78
30
30
60
ENDCHAR
STARTCHAR 1E90
ENCODING 7824
SWIDTH 840 0
DWIDTH 7 0
BBX 6 11 0 0
BITMAP
10
28
00
FC
0C
18
30
70
60
C0
FC
ENDCHAR
STARTCHAR 1E91
ENCODING 7825
SWIDTH 720 0
DWIDTH 6 0
BBX 5 9 0 0
BITMAP
20
50
00
F8
18
30
60
C0
F8
ENDCHAR
STARTCHAR 1E92
ENCODING 7826
SWIDTH 840 0
DWIDTH 7 0
BBX 6 10 0 -2
BITMAP
FC
0C
18
30
70
60
C0
FC
00
20
ENDCHAR
STARTCHAR 1E93
ENCODING 7827
SWIDTH 720 0
DWIDTH 6 0
BBX 5 8 0 -2
BITMAP
F8
18
30
60
C0
F8
00
20
ENDCHAR
STARTCHAR 1E94
ENCODING 7828
SWIDTH 840 0
DWIDTH 7 0
BBX 6 10 0 -2
BITMAP
FC
0C
18
30
70
60
C0
FC
00
70
ENDCHAR
STARTCHAR 1E95
ENCODING 7829
SWIDTH 720 0
DWIDTH 6 0
BBX 5 8 0 -2
BITMAP
F8
18
30
60
C0
F8
00
70
ENDCHAR
STARTCHAR 1E96
ENCODING 7830
SWIDTH 720 0
DWIDTH 6 0
BBX 5 10 0 -2
BITMAP
C0
C0
F0
D8
D8
D8
D8
D8
00
70
ENDCHAR
STARTCHAR 1E97
ENCODING 7831
SWIDTH 480 0
DWIDTH 4 0
BBX 4 10 -1 0
BITMAP
50
00
60
60
F0
60
60
60
60
30
ENDCHAR
STARTCHAR 1E98
ENCODING 7832
SWIDTH 960 0
DWIDTH 8 0
BBX 7 10 0 0
BITMAP
10
28
10
00
D6
D6
D6
6C
6C
6C
ENDCHAR
STARTCHAR 1E99
ENCODING 7833
SWIDTH 720 0
DWIDTH 6 0
BBX 5 12 0 -2
BITMAP
20
50
20
00
D8
D8
D8
D8
78
30
30
60
ENDCHAR
STARTCHAR 1EA0
ENCODING 7840
SWIDTH 960 0
DWIDTH 8 0
BBX 7 10 0 -2
BITMAP
38
38
6C
6C
6C
FE
C6
C6
00
10
ENDCHAR
STARTCHAR 1EA1
ENCODING 7841
SWIDTH 720 0
DWIDTH 6 0
BBX 6 8 0 -2
BITMAP
70
98
78
D8
D8
6C
00
10
ENDCHAR
STARTCHAR 1EA4
ENCODING 7844
SWIDTH 960 0
DWIDTH 8 0
BBX 7 15 0 0
BITMAP
08
10
10
00
10
28
00
38
38
6C
6C
6C
FE
C6
C6
ENDCHAR
STARTCHAR 1EA5
ENCODING 7845
SWIDTH 720 0
DWIDTH 6 0
BBX 6 12 0 0
BITMAP
10
20
00
20
50
00
70
98
78
D8
D8
6C
ENDCHAR
STARTCHAR 1EA6
ENCODING 7846
SWIDTH 960 0
DWIDTH 8 0
BBX 7 15 0 0
BITMAP
20
10
10
00
10
28
00
38
38
6C
6C
6C
FE
C6
C6
ENDCHAR
STARTCHAR 1EA7
ENCODING 7847
SWIDTH 720 0
DWIDTH 6 0
BBX 6 12 0 0
BITMAP
40
20
00
20
50
00
70
98
78
D8
D8
6C
ENDCHAR
STARTCHAR 1EAA
ENCODING 7850
SWIDTH 960 0
DWIDTH 8 0
BBX 7 15 0 0
BITMAP
14
28
28
00
10
28
00
38
38
6C
6C
6C
FE
C6
C6
ENDCHAR
STARTCHAR 1EAB
ENCODING 7851
SWIDTH 720 0
DWIDTH 6 0
BBX 6 12 0 0
BITMAP
28
50
00
20
50
00
70
98
78
D8
D8
6C
ENDCHAR
STARTCHAR 1EAC
ENCODING 7852
SWIDTH 960 0
DWIDTH 8 0
BBX 7 13 0 -2
BITMAP
10
28
00
38
38
6C
6C
6C
FE
C6
C6
00
10
ENDCHAR
STARTCHAR 1EAD
ENCODING 7853
SWIDTH 720 0
DWIDTH 6 0
BBX 6 11 0 -2
BITMAP
20
50
00
70
98
78
D8
D8
6C
00
10
ENDCHAR
STARTCHAR 1EAE
ENCODING 7854
SWIDTH 960 0
DWIDTH 8 0
BBX 7 15 0 0
BITMAP
08
10
10
00
24
18
00
38
38
6C
6C
6C
FE
C6
C6
ENDCHAR
STARTCHAR 1EAF
ENCODING 7855
SWIDTH 720 0
DWIDTH 6 0
BBX 6 12 0 0
BITMAP
10
20
00
48
30
00
70
98
78
D8
D8
6C
ENDCHAR
STARTCHAR 1EB0
ENCODING 7856
SWIDTH 960 0
DWIDTH 8 0
BBX 7 15 0 0
BITMAP
10
08
08
00
24
18
00
38
38
6C
6C
6C
FE
C6
C6
ENDCHAR
STARTCHAR 1EB1
ENCODING 7857
SWIDTH 720 0
DWIDTH 6 0
BBX 6 12 0 0
BITMAP
20
10
00
48
30
00
70
98
78
D8
D8
6C
ENDCHAR
STARTCHAR 1EB4
ENCODING 7860
SWIDTH 960 0
DWIDTH 8 0
BBX 7 15 0 0
BITMAP
14
28
28
00
24
18
00
38
38
6C
6C
6C
FE
C6
C6
ENDCHAR
STARTCHAR 1EB5
ENCODING 7861
SWIDTH 720 0
DWIDTH 6 0
BBX 6 12 0 0
BITMAP
28
50
00
48
30
00
70
98
78
D8
D8
6C
ENDCHAR
STARTCHAR 1EB6
ENCODING 7862
SWIDTH 960 0
DWIDTH 8 0
BBX 7 13 0 -2
BITMAP
24
18
00
38
38
6C
6C
6C
FE
C6
C6
00
10
ENDCHAR
STARTCHAR 1EB7
ENCODING 7863
SWIDTH 720 0
DWIDTH 6 0
BBX 6 11 0 -2
BITMAP
48
30
00
70
98
78
D8
D8
6C
00
10
ENDCHAR
STARTCHAR 1EB8
ENCODING 7864
SWIDTH 720 0
DWIDTH 6 0
BBX 5 10 0 -2
BITMAP
F8
C0
C0
F8
C0
C0
C0
F8
00
20
ENDCHAR
STARTCHAR 1EB9
ENCODING 7865
SWIDTH 720 0
DWIDTH 6 0
BBX 5 8 0 -2
BITMAP
70
D8
F8
C0
D8
70
00
20
ENDCHAR
STARTCHAR 1EBC
ENCODING 7868
SWIDTH 720 0
DWIDTH 6 0
BBX 5 11 0 0
BITMAP
50
A0
00
F8
C0
C0
F8
C0
C0
C0
F8
ENDCHAR
STARTCHAR 1EBD
ENCODING 7869
SWIDTH 720 0
DWIDTH 6 0
BBX 5 9 0 0
BITMAP
28
50
00
70
D8
F8
C0
D8
70
ENDCHAR
STARTCHAR 1EBE
ENCODING 7870
SWIDTH 720 0
DWIDTH 6 0
BBX 5 15 0 0
BITMAP
10
20
20
00
20
50
00
F8
C0
C0
F8
C0
C0
C0
F8
ENDCHAR
STARTCHAR 1EBF
ENCODING 7871
SWIDTH 720 0
DWIDTH 6 0
BBX 5 12 0 0
BITMAP
10
20
00
20
50
00
70
D8
F8
C0
D8
70
ENDCHAR
STARTCHAR 1EC0
ENCODING 7872
SWIDTH 720 0
DWIDTH 6 0
BBX 5 15 0 0
BITMAP
40
20
20
00
20
50
00
F8
C0
C0
F8
C0
C0
C0
F8
ENDCHAR
STARTCHAR 1EC1
ENCODING 7873
SWIDTH 720 0
DWIDTH 6 0
BBX 5 12 0 0
BITMAP
40
20
00
20
50
00
70
D8
F8
C0
D8
70
ENDCHAR
STARTCHAR 1EC4
ENCODING 7876
SWIDTH 720 0
DWIDTH 6 0
BBX 5 15 0 0
BITMAP
28
50
50
00
20
50
00
F8
C0
C0
F8
C0
C0
C0
F8
ENDCHAR
STARTCHAR 1EC5
ENCODING 7877
SWIDTH 720 0
DWIDTH 6 0
BBX 5 12 0 0
BITMAP
28
50
00
20
50
00
70
D8
F8
C0
D8
70
ENDCHAR
STARTCHAR 1EC6
ENCODING 7878
SWIDTH 720 0
DWIDTH 6 0
BBX 5 13 0 -2
BITMAP
20
50
00
F8
C0
C0
F8
C0
C0
C0
F8
00
20
ENDCHAR
STARTCHAR 1EC7
ENCODING 7879
SWIDTH 720 0
DWIDTH 6 0
BBX 5 11 0 -2
BITMAP
20
50
00
70
D8
F8
C0
D8
70
00
20
ENDCHAR
STARTCHAR 1ECA
ENCODING 7882
SWIDTH 360 0
DWIDTH 3 0
BBX 2 10 0 -2
BITMAP
C0
C0
C0
C0
C0
C0
C0
C0
00
40
ENDCHAR
STARTCHAR 1ECB
ENCODING 7883
SWIDTH 360 0
DWIDTH 3 0
BBX 2 10 0 -2
BITMAP
C0
00
C0
C0
C0
C0
C0
C0
00
40
ENDCHAR
STARTCHAR 1ECC
ENCODING 7884
SWIDTH 960 0
DWIDTH 8 0
BBX 7 10 0 -2
BITMAP
38
6C
C6
C6
C6
C6
6C
38
00
10
ENDCHAR
STARTCHAR 1ECD
ENCODING 7885
SWIDTH 720 0
DWIDTH 6 0
BBX 5 8 0 -2
BITMAP
70
D8
D8
D8
D8
70
00
20
ENDCHAR
STARTCHAR 1ED0
ENCODING 7888
SWIDTH 960 0
DWIDTH 8 0
BBX 7 15 0 0
BITMAP
08
10
10
00
10
28
00
38
6C
C6
C6
C6
C6
6C
38
ENDCHAR
STARTCHAR 1ED1
ENCODING 7889
SWIDTH 720 0
DWIDTH 6 0
BBX 5 12 0 0
BITMAP
10
20
00
20
50
00
70
D8
D8
D8
D8
70
ENDCHAR
STARTCHAR 1ED2
ENCODING 7890
SWIDTH 960 0
DWIDTH 8 0
BBX 7 15 0 0
BITMAP
20
10
10
00
10
28
00
38
6C
C6
C6
C6
C6
6C
38
ENDCHAR
STARTCHAR 1ED3
ENCODING 7891
SWIDTH 720 0
DWIDTH 6 0
BBX 5 12 0 0
BITMAP
40
20
00
20
50
00
70
D8
D8
D8
D8
70
ENDCHAR
STARTCHAR 1ED6
ENCODING 7894
SWIDTH 960 0
DWIDTH 8 0
BBX 7 15 0 0
BITMAP
14
28
28
00
10
28
00
38
6C
C6
C6
C6
C6
6C
38
ENDCHAR
STARTCHAR 1ED7
ENCODING 7895
SWIDTH 720 0
DWIDTH 6 0
BBX 5 12 0 0
BITMAP
28
50
00
20
50
00
70
D8
D8
D8
D8
70
ENDCHAR
STARTCHAR 1ED8
ENCODING 7896
SWIDTH 960 0
DWIDTH 8 0
BBX 7 13 0 -2
BITMAP
10
28
00
38
6C
C6
C6
C6
C6
6C
38
00
10
ENDCHAR
STARTCHAR 1ED9
ENCODING 7897
SWIDTH 720 0
DWIDTH 6 0
BBX 5 11 0 -2
BITMAP
20
50
00
70
D8
D8
D8
D8
70
00
20
ENDCHAR
STARTCHAR 1EDA
ENCODING 7898
SWIDTH 960 0
DWIDTH 8 0
BBX 9 11 0 0
BITMAP
0400
0800
0000
3980
6D80
C680
C700
C600
C600
6C00
3800
ENDCHAR
STARTCHAR 1EDB
ENCODING 7899
SWIDTH 720 0
DWIDTH 6 0
BBX 7 9 0 0
BITMAP
08
10
00
76
DE
DA
DC
D8
70
ENDCHAR
STARTCHAR 1EDC
ENCODING 7900
SWIDTH 960 0
DWIDTH 8 0
BBX 9 11 0 0
BITMAP
1000
0800
0000
3980
6D80
C680
C700
C600
C600
6C00
3800
ENDCHAR
STARTCHAR 1EDD
ENCODING 7901
SWIDTH 720 0
DWIDTH 6 0
BBX 7 9 0 0
BITMAP
20
10
00
76
DE
DA
DC
D8
70
ENDCHAR
STARTCHAR 1EE0
ENCODING 7904
SWIDTH 960 0
DWIDTH 8 0
BBX 9 11 0 0
BITMAP
0A00
1400
0000
3980
6D80
C680
C700
C600
C600
6C00
3800
ENDCHAR
STARTCHAR 1EE1
ENCODING 7905
SWIDTH 720 0
DWIDTH 6 0
BBX 7 9 0 0
BITMAP
14
28
00
76
DE
DA
DC
D8
70
ENDCHAR
STARTCHAR 1EE2
ENCODING 7906
SWIDTH 960 0
DWIDTH 8 0
BBX 9 10 0 -2
BITMAP
3980
6D80
C680
C700
C600
C600
6C00
3800
0000
1000
ENDCHAR
STARTCHAR 1EE3
ENCODING 7907
SWIDTH 720 0
DWIDTH 6 0
BBX 7 8 0 -2
BITMAP
76
DE
DA
DC
D8
70
00
20
ENDCHAR
STARTCHAR 1EE4
ENCODING 7908
SWIDTH 840 0
DWIDTH 7 0
BBX 6 10 0 -2
BITMAP
CC
CC
CC
CC
CC
CC
CC
78
00
10
ENDCHAR
STARTCHAR 1EE5
ENCODING 7909
SWIDTH 720 0
DWIDTH 6 0
BBX 5 8 0 -2
BITMAP
D8
D8
D8
D8
D8
68
00
20
ENDCHAR
STARTCHAR 1EE8
ENCODING 7912
SWIDTH 840 0
DWIDTH 7 0
BBX 8 11 0 0
BITMAP
08
10
00
CF
CF
CD
CE
CC
CC
CC
78
ENDCHAR
STARTCHAR 1EE9
ENCODING 7913
SWIDTH 720 0
DWIDTH 6 0
BBX 7 9 0 0
BITMAP
08
10
00
DE
DE
DA
DC
D8
68
ENDCHAR
STARTCHAR 1EEA
ENCODING 7914
SWIDTH 840 0
DWIDTH 7 0
BBX 8 11 0 0
BITMAP
10
08
00
CF
CF
CD
CE
CC
CC
CC
78
ENDCHAR
STARTCHAR 1EEB
ENCODING 7915
SWIDTH 720 0
DWIDTH 6 0
BBX 7 9 0 0
BITMAP
20
10
00
DE
DE
DA
DC
D8
68
ENDCHAR
STARTCHAR 1EEE
ENCODING 7918
SWIDTH 840 0
DWIDTH 7 0
BBX 8 11 0 0
BITMAP
14
28
00
CF
CF
CD
CE
CC
CC
CC
78
ENDCHAR
STARTCHAR 1EEF
ENCODING 7919
SWIDTH 720 0
DWIDTH 6 0
BBX 7 9 0 0
BITMAP
14
28
00
DE
DE
DA
DC
D8
68
ENDCHAR
STARTCHAR 1EF0
ENCODING 7920
SWIDTH 840 0
DWIDTH 7 0
BBX 8 10 0 -2
BITMAP
CF
CF
CD
CE
CC
CC
CC
78
00
10
ENDCHAR
STARTCHAR 1EF1
ENCODING 7921
SWIDTH 720 0
DWIDTH 6 0
BBX 7 8 0 -2
BITMAP
DE
DE
DA
DC
D8
68
00
20
ENDCHAR
STARTCHAR 1EF2
ENCODING 7922
SWIDTH 1080 0
DWIDTH 9 0
BBX 8 11 0 0
BITMAP
10
08
00
C3
C3
66
66
3C
18
18
18
ENDCHAR
STARTCHAR 1EF3
ENCODING 7923
SWIDTH 720 0
DWIDTH 6 0
BBX 5 11 0 -2
BITMAP
40
20
00
D8
D8
D8
D8
78
30
30
60
ENDCHAR
STARTCHAR 1EF4
ENCODING 7924
SWIDTH 1080 0
DWIDTH 9 0
BBX 8 10 0 -2
BITMAP
C3
C3
66
66
3C
18
18
18
00
08
ENDCHAR
STARTCHAR 1EF5
ENCODING 7925
SWIDTH 720 0
DWIDTH 6 0
BBX 5 10 0 -4
BITMAP
D8
D8
D8
D8
78
30
30
60
00
20
ENDCHAR
STARTCHAR 1EF8
ENCODING 7928
SWIDTH 1080 0
DWIDTH 9 0
BBX 8 11 0 0
BITMAP
14
28
00
C3
C3
66
66
3C
18
18
18
ENDCHAR
STARTCHAR 1EF9
ENCODING 7929
SWIDTH 720 0
DWIDTH 6 0
BBX 5 11 0 -2
BITMAP
28
50
00
D8
D8
D8
D8
78
30
30
60
ENDCHAR
STARTCHAR 2000
ENCODING 8192
SWIDTH 720 0
DWIDTH 6 0
BBX 0 0 0 0
BITMAP
ENDCHAR
STARTCHAR 2001
ENCODING 8193
SWIDTH 1320 0
DWIDTH 11 0
BBX 0 0 0 0
BITMAP
ENDCHAR
STARTCHAR 2002
ENCODING 8194
SWIDTH 720 0
DWIDTH 6 0
BBX 0 0 0 0
BITMAP
ENDCHAR
STARTCHAR 2003
ENCODING 8195
SWIDTH 1320 0
DWIDTH 11 0
BBX 0 0 0 0
BITMAP
ENDCHAR
STARTCHAR 2004
ENCODING 8196
SWIDTH 480 0
DWIDTH 4 0
BBX 0 0 0 0
BITMAP
ENDCHAR
STARTCHAR 2005
ENCODING 8197
SWIDTH 360 0
DWIDTH 3 0
BBX 0 0 0 0
BITMAP
ENDCHAR
STARTCHAR 2006
ENCODING 8198
SWIDTH 240 0
DWIDTH 2 0
BBX 0 0 0 0
BITMAP
ENDCHAR
STARTCHAR 2007
ENCODING 8199
SWIDTH 720 0
DWIDTH 6 0
BBX 0 0 0 0
BITMAP
ENDCHAR
STARTCHAR 2008
ENCODING 8200
SWIDTH 360 0
DWIDTH 3 0
BBX 0 0 0 0
BITMAP
ENDCHAR
STARTCHAR 2009
ENCODING 8201
SWIDTH 240 0
DWIDTH 2 0
BBX 0 0 0 0
BITMAP
ENDCHAR
STARTCHAR 200A
ENCODING 8202
SWIDTH 120 0
DWIDTH 1 0
BBX 0 0 0 0
BITMAP
ENDCHAR
STARTCHAR 200B
ENCODING 8203
SWIDTH 0 0
DWIDTH 0 0
BBX 0 0 0 0
BITMAP
ENDCHAR
STARTCHAR 2010
ENCODING 8208
SWIDTH 600 0
DWIDTH 5 0
BBX 4 1 0 3
BITMAP
F0
ENDCHAR
STARTCHAR 2011
ENCODING 8209
SWIDTH 600 0
DWIDTH 5 0
BBX 4 1 0 3
BITMAP
F0
ENDCHAR
STARTCHAR 2012
ENCODING 8210
SWIDTH 720 0
DWIDTH 6 0
BBX 6 1 0 3
BITMAP
FC
ENDCHAR
STARTCHAR 2013
ENCODING 8211
SWIDTH 720 0
DWIDTH 6 0
BBX 6 1 0 3
BITMAP
FC
ENDCHAR
STARTCHAR 2014
ENCODING 8212
SWIDTH 1200 0
DWIDTH 10 0
BBX 10 1 0 3
BITMAP
FFC0
ENDCHAR
STARTCHAR 2015
ENCODING 8213
SWIDTH 1200 0
DWIDTH 10 0
BBX 10 1 0 3
BITMAP
FFC0
ENDCHAR
STARTCHAR 2018
ENCODING 8216
SWIDTH 360 0
DWIDTH 3 0
BBX 2 4 0 4
BITMAP
40
80
C0
C0
ENDCHAR
STARTCHAR 2019
ENCODING 8217
SWIDTH 360 0
DWIDTH 3 0
BBX 2 4 0 4
BITMAP
C0
C0
40
80
ENDCHAR
STARTCHAR 201A
ENCODING 8218
SWIDTH 360 0
DWIDTH 3 0
BBX 2 3 0 -2
BITMAP
C0
40
80
ENDCHAR
STARTCHAR 201B
ENCODING 8219
SWIDTH 360 0
DWIDTH 3 0
BBX 2 4 0 4
BITMAP
C0
C0
80
40
ENDCHAR
STARTCHAR 201C
ENCODING 8220
SWIDTH 720 0
DWIDTH 6 0
BBX 5 3 0 5
BITMAP
48
90
D8
ENDCHAR
STARTCHAR 201D
ENCODING 8221
SWIDTH 720 0
DWIDTH 6 0
BBX 5 3 0 5
BITMAP
D8
48
90
ENDCHAR
STARTCHAR 201E
ENCODING 8222
SWIDTH 720 0
DWIDTH 6 0
BBX 5 3 0 -2
BITMAP
D8
48
90
ENDCHAR
STARTCHAR 201F
ENCODING 8223
SWIDTH 720 0
DWIDTH 6 0
BBX 5 3 0 5
BITMAP
D8
90
48
ENDCHAR
STARTCHAR 2020
ENCODING 8224
SWIDTH 840 0
DWIDTH 7 0
BBX 6 10 0 -2
BITMAP
30
30
FC
30
30
30
30
30
30
30
ENDCHAR
STARTCHAR 2021
ENCODING 8225
SWIDTH 840 0
DWIDTH 7 0
BBX 6 10 0 -2
BITMAP
30
30
FC
30
30
30
FC
30
30
30
ENDCHAR
STARTCHAR 2022
ENCODING 8226
SWIDTH 480 0
DWIDTH 4 0
BBX 2 2 1 2
BITMAP
C0
C0
ENDCHAR
STARTCHAR 2026
ENCODING 8230
SWIDTH 1200 0
DWIDTH 10 0
BBX 8 2 1 0
BITMAP
DB
DB
ENDCHAR
STARTCHAR 2030
ENCODING 8240
SWIDTH 1320 0
DWIDTH 11 0
BBX 10 7 0 0
BITMAP
6200
B400
6800
1000
2D80
56C0
8D80
ENDCHAR
STARTCHAR 2039
ENCODING 8249
SWIDTH 600 0
DWIDTH 5 0
BBX 3 3 1 1
BITMAP
60
C0
60
ENDCHAR
STARTCHAR 203A
ENCODING 8250
SWIDTH 600 0
DWIDTH 5 0
BBX 3 3 1 1
BITMAP
C0
60
C0
ENDCHAR
STARTCHAR 2044
ENCODING 8260
SWIDTH 480 0
DWIDTH 4 0
BBX 5 8 -1 0
BITMAP
08
08
10
10
20
40
40
80
ENDCHAR
STARTCHAR 2081
ENCODING 8321
SWIDTH 360 0
DWIDTH 3 0
BBX 2 4 0 -2
BITMAP
40
C0
40
40
ENDCHAR
STARTCHAR 2082
ENCODING 8322
SWIDTH 360 0
DWIDTH 3 0
BBX 3 4 0 -2
BITMAP
60
A0
40
E0
ENDCHAR
STARTCHAR 2083
ENCODING 8323
SWIDTH 360 0
DWIDTH 3 0
BBX 3 4 0 -2
BITMAP
E0
40
20
C0
ENDCHAR
STARTCHAR 20A5
ENCODING 8357
SWIDTH 1080 0
DWIDTH 9 0
BBX 8 8 0 -1
BITMAP
04
B6
DB
DB
DB
DB
FB
20
ENDCHAR
STARTCHAR 20A6
ENCODING 8358
SWIDTH 960 0
DWIDTH 8 0
BBX 7 8 0 0
BITMAP
C6
E6
FE
D6
FE
CE
CE
C6
ENDCHAR
STARTCHAR 20A9
ENCODING 8361
SWIDTH 1320 0
DWIDTH 11 0
BBX 10 8 0 0
BITMAP
CCC0
CCC0
DFC0
6D80
7F80
7F80
3300
3300
ENDCHAR
STARTCHAR 20AC
ENCODING 8364
SWIDTH 960 0
DWIDTH 8 0
BBX 8 8 -1 0
BITMAP
1E
33
F9
60
F8
61
33
1E
ENDCHAR
STARTCHAR 20AD
ENCODING 8365
SWIDTH 840 0
DWIDTH 7 0
BBX 7 8 0 0
BITMAP
CC
D8
F0
FE
F0
D8
CC
C6
ENDCHAR
STARTCHAR 2103
ENCODING 8451
SWIDTH 1560 0
DWIDTH 13 0
BBX 11 8 0 0
BITMAP
63C0
A660
CC20
0C00
0C00
0C20
0660
03C0
ENDCHAR
STARTCHAR 2109
ENCODING 8457
SWIDTH 1200 0
DWIDTH 10 0
BBX 9 8 0 0
BITMAP
6F80
AC00
CC00
0F00
0C00
0C00
0C00
0C00
ENDCHAR
STARTCHAR 2122
ENCODING 8482
SWIDTH 1320 0
DWIDTH 11 0
BBX 9 4 0 4
BITMAP
E880
4D80
4A80
4A80
ENDCHAR
STARTCHAR 212A
ENCODING 8490
SWIDTH 840 0
DWIDTH 7 0
BBX 7 8 0 0
BITMAP
CC
D8
F0
E0
F0
D8
CC
C6
ENDCHAR
STARTCHAR 212B
ENCODING 8491
SWIDTH 960 0
DWIDTH 8 0
BBX 7 11 0 0
BITMAP
10
28
10
38
38
6C
6C
6C
FE
C6
C6
ENDCHAR
STARTCHAR 2132
ENCODING 8498
SWIDTH 720 0
DWIDTH 6 0
BBX 5 8 0 0
BITMAP
18
18
18
18
78
18
18
F8
ENDCHAR
STARTCHAR 2200
ENCODING 8704
SWIDTH 960 0
DWIDTH 8 0
BBX 7 8 0 0
BITMAP
C6
C6
FE
6C
6C
6C
38
38
ENDCHAR
STARTCHAR 2203
ENCODING 8707
SWIDTH 720 0
DWIDTH 6 0
BBX 5 8 0 0
BITMAP
F8
18
18
F8
18
18
18
F8
ENDCHAR
STARTCHAR 2204
ENCODING 8708
SWIDTH 720 0
DWIDTH 6 0
BBX 5 8 0 0
BITMAP
F8
18
18
F8
38
38
58
F8
ENDCHAR
STARTCHAR 2212
ENCODING 8722
SWIDTH 840 0
DWIDTH 7 0
BBX 5 1 1 3
BITMAP
F8
ENDCHAR
STARTCHAR 2215
ENCODING 8725
SWIDTH 480 0
DWIDTH 4 0
BBX 5 8 -1 0
BITMAP
08
08
10
10
20
40
40
80
ENDCHAR
STARTCHAR 2219
ENCODING 8729
SWIDTH 360 0
DWIDTH 3 0
BBX 2 1 0 3
BITMAP
C0
ENDCHAR
STARTCHAR 2236
ENCODING 8758
SWIDTH 360 0
DWIDTH 3 0
BBX 2 6 0 0
BITMAP
C0
C0
00
00
C0
C0
ENDCHAR
STARTCHAR 2259
ENCODING 8793
SWIDTH 720 0
DWIDTH 6 0
BBX 5 6 0 2
BITMAP
20
50
00
F8
00
F8
ENDCHAR
STARTCHAR 225A
ENCODING 8794
SWIDTH 720 0
DWIDTH 6 0
BBX 5 6 0 2
BITMAP
50
20
00
F8
00
F8
ENDCHAR
STARTCHAR 2260
ENCODING 8800
SWIDTH 720 0
DWIDTH 6 0
BBX 5 8 0 0
BITMAP
08
08
10
F8
20
F8
40
40
ENDCHAR
STARTCHAR 2261
ENCODING 8801
SWIDTH 720 0
DWIDTH 6 0
BBX 5 5 0 1
BITMAP
F8
00
F8
00
F8
ENDCHAR
STARTCHAR 2262
ENCODING 8802
SWIDTH 720 0
DWIDTH 6 0
BBX 5 8 0 0
BITMAP
08
08
F8
10
F8
20
F8
40
ENDCHAR
STARTCHAR 2264
ENCODING 8804
SWIDTH 600 0
DWIDTH 5 0
BBX 4 7 0 -1
BITMAP
30
60
C0
60
30
00
F0
ENDCHAR
STARTCHAR 2265
ENCODING 8805
SWIDTH 600 0
DWIDTH 5 0
BBX 4 7 0 -1
BITMAP
C0
60
30
60
C0
00
F0
ENDCHAR
STARTCHAR 226E
ENCODING 8814
SWIDTH 600 0
DWIDTH 5 0
BBX 4 8 0 0
BITMAP
10
10
30
60
C0
60
B0
80
ENDCHAR
STARTCHAR 226F
ENCODING 8815
SWIDTH 600 0
DWIDTH 5 0
BBX 4 8 0 0
BITMAP
10
10
E0
60
70
60
C0
80
ENDCHAR
STARTCHAR 2270
ENCODING 8816
SWIDTH 600 0
DWIDTH 5 0
BBX 4 8 0 -1
BITMAP
10
30
60
E0
60
70
80
F0
ENDCHAR
STARTCHAR 2271
ENCODING 8817
SWIDTH 600 0
DWIDTH 5 0
BBX 4 8 0 -1
BITMAP
10
D0
60
30
60
C0
80
F0
ENDCHAR
ENDFONT
